<?xml version="1.0" standalone="no"?><!DOCTYPE svg PUBLIC "-//W3C//DTD SVG 1.1//EN" "http://www.w3.org/Graphics/SVG/1.1/DTD/svg11.dtd"><svg t="1725094330909" class="icon" viewBox="0 0 2491 1024" version="1.1" xmlns="http://www.w3.org/2000/svg" p-id="27321" width="622.75" height="256" xmlns:xlink="http://www.w3.org/1999/xlink"><path d="M2032.708 372.292V760.32c0 81.1-68.676 146.432-152.951 146.432a33.621 33.621 0 0 1-33.997-33.246c0-18.364 15.223-33.246 33.997-33.246 47.138 0 84.992-35.976 84.992-79.94V628.429l-89.361 34.952c-17.408 6.827-37.206-1.467-44.203-18.534a33.007 33.007 0 0 1 18.944-43.213l114.586-44.817V372.292H1845.76a33.621 33.621 0 0 1-33.997-33.246c0-18.363 15.224-33.245 33.997-33.245h118.955v-99.738c0-18.364 15.223-33.246 33.996-33.246s33.997 14.882 33.997 33.246V305.8h305.494c65.877 0 119.398 51.882 119.398 116.053v252.518c0 64.17-53.521 116.054-119.433 116.054h-98.235c-65.878 0-119.433-51.883-119.433-116.054V458.377a33.792 33.792 0 0 1 33.997-33.656 33.792 33.792 0 0 1 33.997 33.656v215.995c0 27.307 22.937 49.562 51.439 49.562h98.201c28.502 0 51.44-22.255 51.44-49.562V421.854c0-27.307-22.938-49.562-51.44-49.562h-305.459z m-767.146 195.584c-10.65 76.493-26.863 141.346-46.934 195.345-10.854 29.253-22.255 53.59-33.519 73.353-7.065 12.424-12.834 20.821-16.588 25.532a31.846 31.846 0 0 1-44.954 4.778 32.29 32.29 0 0 1-4.779-45.226 206.916 206.916 0 0 0 10.855-17.067c9.557-16.725 19.456-37.922 29.081-63.898 18.432-49.561 33.45-109.84 43.486-181.726 5.427-38.912 11.469-96.153 18.125-171.69h-100.66a32.085 32.085 0 0 1-31.948-32.188c0-17.75 14.302-32.154 31.949-32.154h106.154c3.311-40.618 6.759-85.435 10.377-134.348a32.051 32.051 0 0 1 34.236-29.696 32.085 32.085 0 0 1 29.525 34.474 16671.27 16671.27 0 0 1-10.001 129.57h253.406a64.17 64.17 0 0 1 63.966 64.342L1591.33 805.41a64.17 64.17 0 0 1-63.932 64.307h-87.995a32.085 32.085 0 0 1-31.95-32.187c0-17.75 14.303-32.154 31.95-32.154h64.853c12.902 0 23.484-10.24 23.996-23.21l14.13-369.87a24.064 24.064 0 0 0-23.96-25.02h-233.916c-6.93 79.395-13.278 139.606-18.979 180.634z" p-id="27322"></path><path d="M610.68 749.363a54.067 54.067 0 0 1 77.004 0.103c21.231 21.504 21.163 56.32-0.102 77.79l-94.584 95.197c-87.244 87.825-229.546 89.088-318.259 2.936l-170.325-168.38C17.715 671.334 9.045 534.187 90.658 446.09l152.098-164.182c80.999-87.45 230.264-97.007 322.833-21.504l138.172 112.64c23.416 19.115 27.068 53.692 8.192 77.346-18.91 23.62-53.18 27.307-76.595 8.226l-138.172-112.64c-48.4-39.492-133.12-34.065-174.9 11.06L170.156 521.216c-39.697 42.906-35.362 111.957 10.41 157.218l169.54 167.595a118.58 118.58 0 0 0 166.025-1.468l94.55-95.232z" fill="#FFA116" p-id="27323"></path><path d="M380.928 654.097a54.716 54.716 0 0 1-54.443-54.989c0-30.378 24.406-54.989 54.477-54.989h401.545c30.071 0 54.442 24.576 54.442 54.955 0 30.379-24.37 55.023-54.442 55.023H380.962z" fill="#B3B3B3" p-id="27324"></path><path d="M456.158 51.541a54.067 54.067 0 0 1 76.97-2.56c21.948 20.72 23.075 55.535 2.56 77.722l-365.5 394.513c-39.73 42.871-35.395 111.957 10.377 157.184l168.79 166.844c21.504 21.265 21.845 56.08 0.819 77.79a54.067 54.067 0 0 1-76.97 0.819L104.38 756.975C17.68 671.3 9.045 534.118 90.658 446.055l365.5-394.514z" p-id="27325"></path></svg>