<?xml version="1.0" standalone="no"?><!DOCTYPE svg PUBLIC "-//W3C//DTD SVG 1.1//EN" "http://www.w3.org/Graphics/SVG/1.1/DTD/svg11.dtd"><svg t="1715830769609" class="icon" viewBox="0 0 1024 1024" version="1.1" xmlns="http://www.w3.org/2000/svg" p-id="6519" width="256" height="256" xmlns:xlink="http://www.w3.org/1999/xlink"><path d="M877.69 800.31c-55.578 24.4-51.022 81.39-114.156 160.064-60.044 74.822-163.266 84.994-261.42 23.382-29.986-18.822-105.306-40.01-141.332-108.366-34.524-65.51-56.58-217.946-33.716-303.16 11.118-41.44 45.35-76.444 88.68-98.206 41.552-20.87 73.436-33.946 28.174-108.54 0 0-36.354 19.4-41.884 38.408-7.75 26.64-100.94 93.916-108.244 104.874-22.724 34.086-54.582 44.372-70.656 53.122-2.594-14.082 35.578-33.724 18.9-37.8s-63.48 20.71-67.45 10.006c-1.404-3.782 24.424-11.662 28.166-18.532-16.678-4.076-26.684-12.23-26.684-12.23s72.64-6.67 101.918-2.222c13.352-19.636 30.02-57.816 66.71-92.654 0 0-45.724 5.104-52.89 8.772-7.168 3.666-7.668 28.666-12.168 30-4.5 1.334 13.334-42.834-49.452-27.508 0 0-23.168 23.704-24.866 65.452 0 0-11.664-11.938-18.174-29.412-3.426-9.196-21.244 6.51-28.44 1.37 17.036-11.456 20.876-30.496 18.502-53.11-15.336 3.146-25.312-1.1-32.208-9.594 30.404 3.594 55.772-40.312 78.808-106.22l-30.152 17.476c13.706-79.836 74.01-65.446 115.128-132.604-13.132-4.552-24.276-1.78-33.922 6.51 18.502-38.72 56.166 7.228 88.96-96.23 7.39-21.708 21.682-31.826 40.84-49.496 14.76-13.618 25.964-25.818 51.758-32.778 19.464-5.25 96.28 7.828 122.828 55.41 23.086 41.38 11.546 133.942-24.018 161.654 0 0-5.774 9.93 4.62 18.244 10.39 8.314 29.79 29.79 51.96 86.6 9.7 29.792 63.276 28.636 118.008 75.748 0.88-17.366 10.766-32.126 20.244-45.614 11.91-16.952 24.508-30.614 32.79-30.426 32.116 20.96-18.626 61.952-18.626 61.952 4.64 2.41 12.428 2.5 22.008 1.266-10.244 22.726-43.022 37.3-55.468 37.218-29.87-0.202-102.1-27.63-148.232-51.992-11.726 11.73-23.248 42.368-37.292 73.32-13.856 64.2 64.988 152.776-86.832 267.424-19.572 14.78-33.312 78.816-32.504 113.158 1.394 59.13 31.64 100.616 84.522 130.71 93.476-30.98 38.358-212.33 291.614-255.588-51.78 51.286-59.44 95.004-87.466 152.128 60.14-12.174 37.12-38.176 163.114-51.986z" fill="#42B983" p-id="6520"></path></svg>