<?xml version="1.0" standalone="no"?><!DOCTYPE svg PUBLIC "-//W3C//DTD SVG 1.1//EN" "http://www.w3.org/Graphics/SVG/1.1/DTD/svg11.dtd"><svg t="1725325158100" class="icon" viewBox="0 0 1024 1024" version="1.1" xmlns="http://www.w3.org/2000/svg" p-id="9490" width="256" height="256" xmlns:xlink="http://www.w3.org/1999/xlink"><path d="M513.024 915.456h-284.16c-9.728 0-13.312 1.536-12.8 12.288 1.024 11.264 0.512 22.528 0 33.792-0.512 19.968-14.848 35.328-34.816 35.84-41.984 0.512-84.48 0.512-126.464 0-20.48-0.512-34.304-15.36-34.304-35.84v-122.368c0-23.04 13.824-37.376 36.864-37.888 12.8-0.512 25.6-0.512 37.888 0 8.192 0.512 10.24-2.56 10.24-10.24-0.512-58.368 0-116.736 0-175.104v-379.904c0-17.408 2.048-14.848-15.36-14.848-13.312-0.512-26.624 1.024-39.936-1.024-16.896-2.56-29.184-15.872-29.184-33.28 0-43.008-0.512-86.016 0-128.512 0-18.432 14.848-33.28 33.28-33.792 43.008-0.512 86.016-0.512 128.512 0 18.432 0 32.768 15.36 33.792 33.792 0.512 11.264 0.512 22.528 0 33.792-0.512 7.168 2.56 8.704 8.704 8.704 40.96-0.512 82.432 0 123.392 0h451.072c9.216 0 12.8-2.048 11.776-11.776-1.024-10.24-0.512-20.48 0-30.72 0.512-18.432 14.848-33.28 33.28-33.792 43.008-0.512 86.016-0.512 128.512 0 18.432 0 33.28 15.36 33.28 33.792 0.512 43.008 0.512 86.016 0 128.512 0 16.896-12.8 30.208-29.696 32.768-14.848 2.048-30.208 1.024-45.056 1.024-7.168 0-10.24 1.536-10.24 9.728v561.152c0 7.68 2.048 10.24 9.728 9.728 12.288-0.512 24.576-0.512 36.864 0 24.064 0.512 38.4 14.848 38.4 38.4v119.296c0 24.064-14.848 38.4-38.4 38.4h-119.296c-24.064 0-37.888-14.336-37.888-38.912 0-11.264-0.512-22.528 0-33.792 0.512-7.168-2.048-9.216-9.216-9.216-46.592 0.512-93.184 0-140.288 0h-148.48z" fill="#808080" p-id="9491"></path><path d="M358.4 680.448h-35.328c-3.584 2.048-7.68 3.072-11.776 3.072-18.944 0-37.888 0.512-56.32 0-17.408-0.512-27.136-9.728-28.672-27.136-1.024-9.216-0.512-18.432-0.512-27.648v-90.624c0-5.632 0-11.264 3.072-15.872v-35.328c-3.584-4.096-3.072-8.704-3.072-13.824v-120.32c0-24.064 10.24-33.792 33.792-34.304h120.32c4.608 0 9.728-0.512 13.824 3.072h35.328c4.096-2.56 9.216-3.072 13.824-3.072h226.816c4.608 0 9.216-0.512 12.8 3.072h35.328c3.584-2.048 7.68-3.072 11.776-3.072 15.872 0 32.256-0.512 48.128 0 18.944 0.512 28.672 9.728 29.184 28.672 0.512 39.936 0 79.36 0 119.296 0 4.096-1.024 8.192-3.072 11.776 0 11.776 0 23.552 0.512 35.328 3.584 4.096 3.072 9.216 3.072 13.824v123.392c0 23.04-9.216 32.256-32.768 32.768h-123.392c-4.608 0-9.728 0.512-13.824-3.072h-35.328c-5.12 3.072-10.24 3.072-15.872 3.072H373.76c-5.632 0-11.264 0.512-15.36-3.072z" fill="#0D7C42" p-id="9492"></path><path d="M636.928 680.448c46.08 0 92.16-0.512 137.728-0.512 20.992 0 28.672-7.68 28.672-28.672 0-46.08 0.512-92.16 0.512-137.728 30.208-29.184 60.416-58.88 90.112-88.064 3.584 2.048 2.048 5.12 2.048 7.68V593.92c0 6.656-2.048 10.752-6.656 15.36-92.16 91.648-184.32 183.808-275.968 275.456-3.584 3.584-7.168 6.144-12.288 6.144h-167.936c-1.024 0-2.56 0-4.096-0.512 1.024-4.608 4.608-6.656 7.168-9.216l191.488-191.488c3.584-3.072 6.656-6.144 9.216-9.216zM393.216 321.536c-45.056 0-89.6 0-134.656 0.512-21.504 0-29.696 8.192-29.696 30.208 0 45.056-0.512 89.6-0.512 134.656-29.696 29.696-59.392 58.88-89.088 88.576-2.56 2.56-4.608 6.144-9.216 7.168v-31.744-124.416c0-8.192 2.048-14.336 8.192-19.968l274.944-274.944c3.584-3.584 7.168-6.656 13.312-6.656h157.696c1.024 0 2.56 0 4.096 0.512-1.024 4.608-4.608 6.144-7.168 8.704l-179.712 179.712c-3.072 2.048-5.632 4.608-8.192 7.68z" fill="#B8E9CC" p-id="9493"></path><path d="M358.4 680.448h243.2c-2.56 2.56-4.608 5.632-7.168 8.192-65.536 65.024-130.56 130.56-196.096 195.584-4.096 4.096-8.192 6.144-14.336 6.144-52.736 0-104.96-0.512-157.696 0-7.68 0-10.752-1.536-10.24-10.24 0.512-17.408 0-34.816-0.512-52.224-0.512-5.632 3.072-7.168 6.144-9.728 43.52-43.52 86.528-87.04 130.048-130.56 2.048-2.048 4.096-4.608 6.656-7.168zM681.984 321.536h-252.928c4.608-4.608 8.704-9.728 13.312-14.336 58.368-58.88 117.248-117.248 175.616-176.128 5.12-5.12 9.728-7.168 16.896-7.168 55.296 0.512 110.592 0.512 165.376 0 9.728 0 11.264 2.56 11.264 11.776-0.512 15.872-0.512 32.256 0 48.128 0 6.144-2.048 10.24-6.144 14.336l-123.392 123.392zM228.352 521.728c0 42.496 0.512 84.992 0.512 126.976 0 23.552 7.68 31.232 31.232 31.232 20.992 0 41.472 0 62.464 0.512-39.936 39.936-79.872 80.384-119.808 120.32-2.048 2.048-3.584 4.608-6.656 3.072-17.92-6.656-36.864-3.072-55.296-3.072-9.216 0-11.264-2.56-11.264-11.776 0.512-53.248 0-106.496 0-159.744 0-5.12 0-10.24 4.096-14.336 32.256-30.72 63.488-61.952 94.72-93.184zM897.024 637.952v156.16c0 6.144-3.072 6.656-7.68 6.656h-38.912c-24.576 0.512-38.4 14.336-38.4 39.424v43.008c0 5.632-1.024 7.68-7.168 7.68h-156.16c-0.512 0-1.024-0.512-0.512 0 81.408-83.968 163.84-167.424 248.832-252.928zM383.488 123.904c-85.504 84.48-169.472 167.936-253.44 250.88-1.536-1.536 0-4.608 0-7.68 0-45.056 0.512-90.624-0.512-135.68 0-9.728 3.072-11.776 12.288-11.776 13.824 0.512 28.16 1.024 41.984-0.512 19.968-2.56 31.744-15.872 32.256-36.352v-51.2c0-5.632 1.536-7.68 7.168-7.68h160.256zM803.328 478.208v-129.024c0-18.944-8.192-27.136-27.648-27.136-19.456 0-38.912 0-58.368-0.512 34.816-34.816 69.12-69.632 103.936-104.448 2.048-2.048 3.584-4.608 6.656-2.56 16.896 9.216 35.84 4.608 53.76 5.632 17.408 0.512 15.36-2.048 15.36 15.36v141.824c0 4.608 0 9.216-4.096 13.312-29.184 28.672-57.856 57.856-86.528 86.528-1.024 0.512-2.048 0.512-3.072 1.024z" fill="#FEFEFE" p-id="9494"></path><path d="M45.056 121.344V61.44c0-9.728 4.096-13.824 13.824-13.824h118.272c11.264 0 14.336 3.584 14.336 14.848v116.224c0 11.776-3.072 15.36-15.36 15.36h-115.2c-13.312 0-15.872-2.56-15.872-15.36v-57.344zM836.096 120.832v-58.88c0-10.752 3.584-13.824 14.336-14.336h118.272c9.216 0 13.824 4.096 13.824 13.824v119.296c0 8.704-4.096 13.312-12.8 13.312h-120.32c-9.728 0-13.312-4.608-13.312-14.336v-58.88zM982.528 899.072v58.88c0 10.752-3.584 14.848-14.848 14.848h-116.224c-11.776 0-15.36-3.584-15.36-15.36v-116.224c0-12.8 2.56-14.848 15.36-14.848h115.2c13.824 0 15.872 2.56 15.872 16.384v56.32zM118.784 825.856h58.88c11.264 0 14.336 3.072 14.336 13.824v118.272c0 10.24-4.096 14.336-14.336 14.336h-118.272c-9.216 0-13.824-4.608-13.824-13.824v-119.296c0-9.728 4.608-13.312 13.824-13.312h59.392zM267.776 494.08c0-45.568 25.088-80.896 64-89.6 64.512-13.824 108.032 28.16 105.984 90.624-1.024 27.136-9.216 51.712-31.232 68.608-28.672 22.528-60.928 24.576-93.184 9.728-32.768-14.848-45.056-44.032-45.568-79.36zM708.608 500.736c26.112 20.992 37.376 51.712 57.344 78.336h-40.448c-4.608 0-5.632-3.584-7.168-6.144-10.24-16.384-19.968-32.768-30.208-49.152-5.12-8.192-12.288-12.288-22.528-11.776-5.632 0-7.168 2.048-7.168 7.168 0.512 17.408 0 34.816 0 52.736 0 5.632-1.536 7.68-7.68 7.68-7.68-0.512-15.872-0.512-23.552 0-5.632 0.512-7.168-1.536-7.168-7.168v-159.744c0-3.072-1.024-7.68 4.096-7.68 26.624 0.512 53.76-2.56 79.872 2.048 25.088 4.608 36.352 16.896 38.912 38.4 2.56 23.04-7.68 41.472-29.184 51.712-0.512 1.536-2.56 2.56-5.12 3.584zM591.36 539.136v27.648c0 3.584-0.512 6.144-4.608 8.192-31.232 15.36-84.992 8.192-108.032-16.384-27.136-29.184-29.184-64.512-16.384-99.84s40.448-53.248 77.312-56.32c14.848-1.536 29.184 0.512 44.032 4.096 5.12 1.024 8.192 3.072 7.68 9.728-0.512 9.216 0 18.432 0 28.16-32.256-12.288-63.488-18.432-86.528 14.848-14.336 20.48-13.312 54.272 2.56 72.192 24.576 27.648 53.76 19.968 83.968 7.68z" fill="#FEFEFE" p-id="9495"></path><path d="M397.824 493.568c0.512 9.728-1.024 18.944-4.608 28.16-7.168 17.408-19.968 27.648-39.424 28.16-17.92 0.512-31.744-7.68-39.424-24.064-10.752-22.528-10.752-46.08 1.024-68.096 8.704-16.896 23.552-24.064 42.496-22.528 17.408 1.536 28.16 11.264 34.816 26.624 4.608 9.728 5.632 20.992 5.12 31.744z" fill="#0D7D42" p-id="9496"></path><path d="M658.944 458.752c0-1.536-0.512-3.072 0-4.096 3.072-6.656-6.656-18.944 6.144-20.48 25.088-3.072 37.376 3.584 39.424 17.408 2.048 15.36-6.144 27.648-20.48 30.72-24.064 5.12-25.088 4.096-25.088-23.552z" fill="#0E7D42" p-id="9497"></path></svg>