<svg xmlns:xlink="http://www.w3.org/1999/xlink" ed:hSpacing="30" height="695" xmlns:ed="https://www.edrawsoft.com/xml/2017/SVGExtensions/" ed:vSpacing="30" xmlns:ev="http://www.w3.org/2001/xml-events" ed:name="页面-1" width="2352" xmlns="http://www.w3.org/2000/svg" viewBox="0 0 2352 695" id="page100"><style type="text/css"><![CDATA[
g[ed\:togtopicid],g[ed\:hyperlink],g[ed\:comment],g[ed\:note] {cursor:pointer;}
g[id] {-moz-user-select: none;-ms-user-select: none;user-select: none;}
svg text::selection,svg tspan::selection{background-color: #4285f4;color: #ffffff;fill: #ffffff;}
.st2 {fill:#000000;font-family:微软雅黑;font-size:10pt}
.st5 {fill:#303030;font-family:微软雅黑;font-size:10pt}
.st4 {fill:#303030;font-family:微软雅黑;font-size:14pt;font-weight:bold}
.st3 {fill:#ffffff;font-family:微软雅黑;font-size:18pt;font-weight:bold}
]]></style><defs/><rect height="695" fill="#ffffff" width="2352" x="0" y="0"/><path transform="matrix(1,0,0,1,550.32,401)" stroke-linejoin="round" d="M0.1,0C6,0,5.9,7.4,5.9,7.4L5.9,52.4C5.9,52.4,6.9,58.8,12,58.8C6.9,59,5.9,65.1,5.9,65.1L5.9,110.1C5.9,110.1,5.8,117.5,0,117.5" stroke-width="2" ed:parentid="250,252,254,256" fill="none" ed:type="summary" ed:idlist="250,252,254,256" id="263" stroke="#00af54"/><path transform="matrix(1,0,0,1,1547.04,484)" stroke-linejoin="round" d="M0.1,0C6,0,5.9,3.5,5.9,3.5L5.9,24.8C5.9,24.8,6.9,27.8,12,27.8C6.9,27.9,5.9,30.7,5.9,30.7L5.9,52C5.9,52,5.8,55.5,0,55.5" stroke-width="2" ed:parentid="275,277" fill="none" ed:type="summary" ed:idlist="275,277" id="281" stroke="#00af54"/><path transform="matrix(1,0,0,1,204.59,221.83)" stroke-linejoin="round" ed:tosuperid="102" d="M-28,51.9C-15.4,-4,25.3,-83.4,81.5,-83.4" stroke-width="3" ed:parentid="101" fill="none" stroke-linecap="round" id="103" stroke="#454545"/><path transform="matrix(1,0,0,1,204.59,272.86)" stroke-linejoin="round" ed:tosuperid="104" d="M6,7.2C20,-12,46.9,-32.4,81.5,-32.4" stroke-width="3" ed:parentid="101" fill="none" stroke-linecap="round" id="105" stroke="#454545"/><path transform="matrix(1,0,0,1,204.59,310.86)" stroke-linejoin="round" ed:tosuperid="106" d="M18,0.4C32.2,3.2,54.3,5.6,81.5,5.6" stroke-width="3" ed:parentid="101" fill="none" stroke-linecap="round" id="107" stroke="#454545"/><path transform="matrix(1,0,0,1,544.72,138.44)" stroke-linejoin="round" ed:tosuperid="112" d="M-21.6,0L-10.6,0C5.7,0,5.7,0,21.6,0" ed:parentid="102" fill="none" stroke-linecap="round" id="113" stroke="#454545"/><path transform="matrix(1,0,0,1,713.92,123.91)" stroke-linejoin="round" ed:tosuperid="114" d="M-21.6,14.5L-10.6,14.5C5.7,-14.5,5.7,-14.5,21.6,-14.5" ed:parentid="112" fill="none" stroke-linecap="round" id="115" stroke="#454545"/><path transform="matrix(1,0,0,1,1047.32,95.81)" stroke-linejoin="round" ed:tosuperid="116" d="M-21.6,13.6L-10.6,13.6C5.7,-13.6,5.7,-13.6,21.6,-13.6" ed:parentid="128" fill="none" stroke-linecap="round" id="117" stroke="#454545"/><path transform="matrix(1,0,0,1,1047.32,122.94)" stroke-linejoin="round" ed:tosuperid="120" d="M-10.6,-13.6C5.7,13.6,5.7,13.6,21.6,13.6" ed:parentid="128" fill="none" stroke-linecap="round" id="121" stroke="#454545"/><path transform="matrix(1,0,0,1,713.92,152.97)" stroke-linejoin="round" ed:tosuperid="124" d="M-10.6,-14.5C5.7,14.5,5.7,14.5,21.6,14.5" ed:parentid="112" fill="none" stroke-linecap="round" id="125" stroke="#454545"/><path transform="matrix(1,0,0,1,827.12,109.38)" stroke-linejoin="round" ed:tosuperid="128" d="M-21.6,0L-10.6,0C5.7,0,5.7,0,21.6,0" ed:parentid="114" fill="none" stroke-linecap="round" id="129" stroke="#454545"/><path transform="matrix(1,0,0,1,1341.52,82.25)" stroke-linejoin="round" ed:tosuperid="130" d="M-21.6,0L-10.6,0C5.7,0,5.7,0,21.6,0" ed:parentid="116" fill="none" stroke-linecap="round" id="131" stroke="#454545"/><path transform="matrix(1,0,0,1,1650.72,82.25)" stroke-linejoin="round" ed:tosuperid="132" d="M-21.6,0L-10.6,0C5.7,0,5.7,0,21.6,0" ed:parentid="130" fill="none" stroke-linecap="round" id="133" stroke="#454545"/><path transform="matrix(1,0,0,1,1841.92,70.63)" stroke-linejoin="round" ed:tosuperid="134" d="M-21.6,11.6L-10.6,11.6C5.7,-11.6,5.7,-11.6,21.6,-11.6" ed:parentid="132" fill="none" stroke-linecap="round" id="135" stroke="#454545"/><path transform="matrix(1,0,0,1,2123.12,51.25)" stroke-linejoin="round" ed:tosuperid="136" d="M-21.6,7.8L-10.6,7.8C5.7,-7.8,5.7,-7.8,21.6,-7.8" ed:parentid="134" fill="none" stroke-linecap="round" id="137" stroke="#454545"/><path transform="matrix(1,0,0,1,2123.12,66.75)" stroke-linejoin="round" ed:tosuperid="138" d="M-10.6,-7.8C5.7,7.8,5.7,7.8,21.6,7.8" ed:parentid="134" fill="none" stroke-linecap="round" id="139" stroke="#454545"/><path transform="matrix(1,0,0,1,1841.92,93.88)" stroke-linejoin="round" ed:tosuperid="140" d="M-10.6,-11.6C5.7,11.6,5.7,11.6,21.6,11.6" ed:parentid="132" fill="none" stroke-linecap="round" id="141" stroke="#454545"/><path transform="matrix(1,0,0,1,546.72,240.5)" stroke-linejoin="round" ed:tosuperid="142" d="M-21.6,0L-10.6,0C5.7,0,5.7,0,21.6,0" ed:parentid="104" fill="none" stroke-linecap="round" id="143" stroke="#454545"/><path transform="matrix(1,0,0,1,715.92,232.75)" stroke-linejoin="round" ed:tosuperid="234" d="M-21.6,7.8L-10.6,7.8C5.7,-7.8,5.7,-7.8,21.6,-7.8" ed:parentid="142" fill="none" stroke-linecap="round" id="235" stroke="#454545"/><path transform="matrix(1,0,0,1,715.92,248.25)" stroke-linejoin="round" ed:tosuperid="236" d="M-10.6,-7.8C5.7,7.8,5.7,7.8,21.6,7.8" ed:parentid="142" fill="none" stroke-linecap="round" id="237" stroke="#454545"/><path transform="matrix(1,0,0,1,936.12,225)" stroke-linejoin="round" ed:tosuperid="238" d="M-21.6,0L-10.6,0C5.7,0,5.7,0,21.6,0" ed:parentid="234" fill="none" stroke-linecap="round" id="239" stroke="#454545"/><path transform="matrix(1,0,0,1,1191.32,225)" stroke-linejoin="round" ed:tosuperid="240" d="M-21.6,0L-10.6,0C5.7,0,5.7,0,21.6,0" ed:parentid="238" fill="none" stroke-linecap="round" id="241" stroke="#454545"/><path transform="matrix(1,0,0,1,1356.52,225)" stroke-linejoin="round" ed:tosuperid="244" d="M-21.6,0L-10.6,0C5.7,0,5.7,0,21.6,0" ed:parentid="240" fill="none" stroke-linecap="round" id="245" stroke="#454545"/><path transform="matrix(1,0,0,1,1547.72,225)" stroke-linejoin="round" ed:tosuperid="246" d="M-21.6,0L-10.6,0C5.7,0,5.7,0,21.6,0" ed:parentid="244" fill="none" stroke-linecap="round" id="247" stroke="#454545"/><path transform="matrix(1,0,0,1,204.59,388.61)" stroke-linejoin="round" ed:tosuperid="248" d="M-28,-51.9C-15.4,4,25.3,83.4,81.5,83.4" stroke-width="3" ed:parentid="101" fill="none" stroke-linecap="round" id="249" stroke="#454545"/><path transform="matrix(1,0,0,1,423.72,448.75)" stroke-linejoin="round" ed:tosuperid="250" d="M-21.6,23.3L-10.6,23.3C5.7,-23.3,5.7,-23.3,21.6,-23.3" ed:parentid="248" fill="none" stroke-linecap="round" id="251" stroke="#454545"/><path transform="matrix(1,0,0,1,423.72,464.25)" stroke-linejoin="round" ed:tosuperid="252" d="M-10.6,7.8C5.7,-7.8,5.7,-7.8,21.6,-7.8" ed:parentid="248" fill="none" stroke-linecap="round" id="253" stroke="#454545"/><path transform="matrix(1,0,0,1,423.72,479.75)" stroke-linejoin="round" ed:tosuperid="254" d="M-10.6,-7.8C5.7,7.8,5.7,7.8,21.6,7.8" ed:parentid="248" fill="none" stroke-linecap="round" id="255" stroke="#454545"/><path transform="matrix(1,0,0,1,423.72,495.25)" stroke-linejoin="round" ed:tosuperid="256" d="M-10.6,-23.3C5.7,23.3,5.7,23.3,21.6,23.3" ed:parentid="248" fill="none" stroke-linecap="round" id="257" stroke="#454545"/><path transform="matrix(1,0,0,1,1146.04,427.63)" stroke-linejoin="round" ed:tosuperid="269" d="M-21.6,32.1L-10.6,32.1C5.7,-32.1,5.7,-32.1,21.6,-32.1" ed:parentid="264" fill="none" stroke-linecap="round" id="270" stroke="#454545"/><path transform="matrix(1,0,0,1,1146.04,491.88)" stroke-linejoin="round" ed:tosuperid="271" d="M-10.6,-32.1C5.7,32.1,5.7,32.1,21.6,32.1" ed:parentid="264" fill="none" stroke-linecap="round" id="272" stroke="#454545"/><path transform="matrix(1,0,0,1,1285.24,524)" stroke-linejoin="round" ed:tosuperid="273" d="M-21.6,0L-10.6,0C5.7,0,5.7,0,21.6,0" ed:parentid="271" fill="none" stroke-linecap="round" id="274" stroke="#454545"/><path transform="matrix(1,0,0,1,1424.44,516.25)" stroke-linejoin="round" ed:tosuperid="275" d="M-21.6,7.8L-10.6,7.8C5.7,-7.8,5.7,-7.8,21.6,-7.8" ed:parentid="273" fill="none" stroke-linecap="round" id="276" stroke="#454545"/><path transform="matrix(1,0,0,1,1424.44,531.75)" stroke-linejoin="round" ed:tosuperid="277" d="M-10.6,-7.8C5.7,7.8,5.7,7.8,21.6,7.8" ed:parentid="273" fill="none" stroke-linecap="round" id="278" stroke="#454545"/><path transform="matrix(1,0,0,1,1723.4,492.38)" stroke-linejoin="round" ed:tosuperid="283" d="M-21.6,19.4L-10.6,19.4C5.7,-19.4,5.7,-19.4,21.6,-19.4" ed:parentid="282" fill="none" stroke-linecap="round" id="284" stroke="#454545"/><path transform="matrix(1,0,0,1,1723.4,531.13)" stroke-linejoin="round" ed:tosuperid="285" d="M-10.6,-19.4C5.7,19.4,5.7,19.4,21.6,19.4" ed:parentid="282" fill="none" stroke-linecap="round" id="286" stroke="#454545"/><path transform="matrix(1,0,0,1,1992.6,449.75)" stroke-linejoin="round" ed:tosuperid="287" d="M-21.6,23.3L-10.6,23.3C5.7,-23.3,5.7,-23.3,21.6,-23.3" ed:parentid="283" fill="none" stroke-linecap="round" id="288" stroke="#454545"/><path transform="matrix(1,0,0,1,2109.8,426.5)" stroke-linejoin="round" ed:tosuperid="289" d="M-21.6,0L-10.6,0C5.7,0,5.7,0,21.6,0" ed:parentid="287" fill="none" stroke-linecap="round" id="290" stroke="#454545"/><path transform="matrix(1,0,0,1,1992.6,465.25)" stroke-linejoin="round" ed:tosuperid="291" d="M-10.6,7.8C5.7,-7.8,5.7,-7.8,21.6,-7.8" ed:parentid="283" fill="none" stroke-linecap="round" id="292" stroke="#454545"/><path transform="matrix(1,0,0,1,1992.6,480.75)" stroke-linejoin="round" ed:tosuperid="293" d="M-10.6,-7.8C5.7,7.8,5.7,7.8,21.6,7.8" ed:parentid="283" fill="none" stroke-linecap="round" id="294" stroke="#454545"/><path transform="matrix(1,0,0,1,1992.6,496.25)" stroke-linejoin="round" ed:tosuperid="295" d="M-10.6,-23.3C5.7,23.3,5.7,23.3,21.6,23.3" ed:parentid="283" fill="none" stroke-linecap="round" id="296" stroke="#454545"/><g transform="matrix(1,0,0,1,286.12,615.5)" ed:height="55" ed:topictype="callout" ed:parentid="248" ed:width="543.4400000000001" ed:layout="rightmap" id="260"><path stroke-linejoin="round" d="M27.5,0L229.6,-0L84.9,-122L245.6,0L515.9,0C531.1,0,543.4,12.3,543.4,27.5C543.4,42.7,531.1,55,515.9,55L27.5,55C12.3,55,0,42.7,0,27.5C0,12.3,12.3,0,27.5,0z" stroke-width="2" fill="#ffffff" stroke="#00af54"/><text class="st2"><tspan x="22" y="22" style="white-space:pre">是指将五书（说明书摘要、摘要附图、说明书、说明书附图、权利要求书）的其中一书</tspan><tspan x="22" y="41" style="white-space:pre">转换为xml格式</tspan></text></g><g transform="matrix(1,0,0,1,23,273.72)" ed:height="63" ed:topictype="mainidea" ed:width="200.12" ed:layout="rightmap" id="101"><path stroke-linejoin="round" d="M31.5,0L168.6,0C186,0,200.1,14.1,200.1,31.5C200.1,48.9,186,63,168.6,63L31.5,63C14.1,63,0,48.9,0,31.5C0,14.1,14.1,0,31.5,0z" stroke-width="3" fill="#00af54" stroke="#00af54"/><text class="st3"><tspan x="26" y="39.5" style="white-space:pre">五书拆分转换</tspan></text></g><g transform="matrix(1,0,0,1,286.12,116.94)" ed:height="43" ed:parentid="101" ed:width="237" id="102"><path stroke-linejoin="round" d="M4,0L233,0C235.7,0,237,1.3,237,4L237,39C237,41.7,235.7,43,233,43L4,43C1.3,43,0,41.7,0,39L0,4C0,1.3,1.3,0,4,0z" stroke-width="2" fill="#ffffff" stroke="#454545"/><text class="st4"><tspan x="18" y="27" style="white-space:pre">word拆分五书（pdf）</tspan></text></g><g transform="matrix(1,0,0,1,286.12,219)" ed:height="43" ed:parentid="101" ed:width="239" id="104"><path stroke-linejoin="round" d="M4,0L235,0C237.7,0,239,1.3,239,4L239,39C239,41.7,237.7,43,235,43L4,43C1.3,43,0,41.7,0,39L0,4C0,1.3,1.3,0,4,0z" stroke-width="2" fill="#ffffff" stroke="#454545"/><text class="st4"><tspan x="18" y="27" style="white-space:pre">word拆分五书（xml）</tspan></text></g><g transform="matrix(1,0,0,1,286.12,295)" ed:height="43" ed:parentid="101" ed:width="150" id="106"><path stroke-linejoin="round" d="M4,0L146,0C148.7,0,150,1.3,150,4L150,39C150,41.7,148.7,43,146,43L4,43C1.3,43,0,41.7,0,39L0,4C0,1.3,1.3,0,4,0z" stroke-width="2" fill="#ffffff" stroke="#454545"/><text class="st4"><tspan x="18" y="27" style="white-space:pre">pdf拆分五书</tspan></text></g><g transform="matrix(1,0,0,1,566.32,113.94)" ed:height="24.5" ed:parentid="102" ed:width="126" id="112"><path d="M0,0L126,0L126,24.5L0,24.5L0,0z" fill="#ffffff"/><path stroke-linejoin="round" d="M0,24.5L126,24.5" fill="none" stroke="#454545"/><text class="st5"><tspan x="8" y="16.1" style="white-space:pre">上传docx格式文件</tspan></text></g><g transform="matrix(1,0,0,1,735.52,84.88)" ed:height="24.5" ed:parentid="112" ed:width="70" id="114"><path d="M0,0L70,0L70,24.5L0,24.5L0,0z" fill="#ffffff"/><path stroke-linejoin="round" d="M0,24.5L70,24.5" fill="none" stroke="#454545"/><text class="st5"><tspan x="8" y="16.1" style="white-space:pre">上传成功</tspan></text></g><g transform="matrix(1,0,0,1,1068.92,57.75)" ed:height="24.5" ed:parentid="128" ed:width="251" id="116"><path d="M0,0L251,0L251,24.5L0,24.5L0,0z" fill="#ffffff"/><path stroke-linejoin="round" d="M0,24.5L251,24.5" fill="none" stroke="#454545"/><text class="st5"><tspan x="8" y="16.1" style="white-space:pre">拆分成功，拆分后得到5个新的docx文件</tspan></text></g><g transform="matrix(1,0,0,1,1068.92,112)" ed:height="24.5" ed:parentid="128" ed:width="135" id="120"><path d="M0,0L135,0L135,24.5L0,24.5L0,0z" fill="#ffffff"/><path stroke-linejoin="round" d="M0,24.5L135,24.5" fill="none" stroke="#454545"/><text class="st5"><tspan x="8" y="16.1" style="white-space:pre">拆分失败，抛出异常</tspan></text></g><g transform="matrix(1,0,0,1,735.52,143)" ed:height="24.5" ed:parentid="112" ed:width="135" id="124"><path d="M0,0L135,0L135,24.5L0,24.5L0,0z" fill="#ffffff"/><path stroke-linejoin="round" d="M0,24.5L135,24.5" fill="none" stroke="#454545"/><text class="st5"><tspan x="8" y="16.1" style="white-space:pre">上传失败，抛出异常</tspan></text></g><g transform="matrix(1,0,0,1,848.72,84.88)" ed:height="24.5" ed:parentid="114" ed:width="177" id="128"><path d="M0,0L177,0L177,24.5L0,24.5L0,0z" fill="#ffffff"/><path stroke-linejoin="round" d="M0,24.5L177,24.5" fill="none" stroke="#454545"/><text class="st5"><tspan x="8" y="16.1" style="white-space:pre">使用aspose商业库进行拆分</tspan></text></g><g transform="matrix(1,0,0,1,1363.12,57.75)" ed:height="24.5" ed:parentid="116" ed:width="266" id="130"><path d="M0,0L266,0L266,24.5L0,24.5L0,0z" fill="#ffffff"/><path stroke-linejoin="round" d="M0,24.5L266,24.5" fill="none" stroke="#454545"/><text class="st5"><tspan x="8" y="16.1" style="white-space:pre">将新文件保存到项目的resource临时文件夹</tspan></text></g><g transform="matrix(1,0,0,1,1672.32,57.75)" ed:height="24.5" ed:parentid="130" ed:width="148" id="132"><path d="M0,0L148,0L148,24.5L0,24.5L0,0z" fill="#ffffff"/><path stroke-linejoin="round" d="M0,24.5L148,24.5" fill="none" stroke="#454545"/><text class="st5"><tspan x="8" y="16.1" style="white-space:pre">从临时文件夹获取文件</tspan></text></g><g transform="matrix(1,0,0,1,1863.52,34.5)" ed:height="24.5" ed:parentid="132" ed:width="238" id="134"><path d="M0,0L238,0L238,24.5L0,24.5L0,0z" fill="#ffffff"/><path stroke-linejoin="round" d="M0,24.5L238,24.5" fill="none" stroke="#454545"/><text class="st5"><tspan x="8" y="16.1" style="white-space:pre">获取成功，将docx格式转换为pdf格式</tspan></text></g><g transform="matrix(1,0,0,1,2144.72,19)" ed:height="24.5" ed:parentid="134" ed:width="135" id="136"><path d="M0,0L135,0L135,24.5L0,24.5L0,0z" fill="#ffffff"/><path stroke-linejoin="round" d="M0,24.5L135,24.5" fill="none" stroke="#454545"/><text class="st5"><tspan x="8" y="16.1" style="white-space:pre">转换成功，上传文件</tspan></text></g><g transform="matrix(1,0,0,1,2144.72,50)" ed:height="24.5" ed:parentid="134" ed:width="135" id="138"><path d="M0,0L135,0L135,24.5L0,24.5L0,0z" fill="#ffffff"/><path stroke-linejoin="round" d="M0,24.5L135,24.5" fill="none" stroke="#454545"/><text class="st5"><tspan x="8" y="16.1" style="white-space:pre">转换失败，抛出异常</tspan></text></g><g transform="matrix(1,0,0,1,1863.52,81)" ed:height="24.5" ed:parentid="132" ed:width="135" id="140"><path d="M0,0L135,0L135,24.5L0,24.5L0,0z" fill="#ffffff"/><path stroke-linejoin="round" d="M0,24.5L135,24.5" fill="none" stroke="#454545"/><text class="st5"><tspan x="8" y="16.1" style="white-space:pre">获取失败，抛出异常</tspan></text></g><g transform="matrix(1,0,0,1,568.32,216)" ed:height="24.5" ed:parentid="104" ed:width="126" id="142"><path d="M0,0L126,0L126,24.5L0,24.5L0,0z" fill="#ffffff"/><path stroke-linejoin="round" d="M0,24.5L126,24.5" fill="none" stroke="#454545"/><text class="st5"><tspan x="8" y="16.1" style="white-space:pre">上传docx格式文件</tspan></text></g><g transform="matrix(1,0,0,1,737.52,200.5)" ed:height="24.5" ed:parentid="142" ed:width="177" id="234"><path d="M0,0L177,0L177,24.5L0,24.5L0,0z" fill="#ffffff"/><path stroke-linejoin="round" d="M0,24.5L177,24.5" fill="none" stroke="#454545"/><text class="st5"><tspan x="8" y="16.1" style="white-space:pre">上传成功，使用aspose拆分</tspan></text></g><g transform="matrix(1,0,0,1,737.52,231.5)" ed:height="24.5" ed:parentid="142" ed:width="135" id="236"><path d="M0,0L135,0L135,24.5L0,24.5L0,0z" fill="#ffffff"/><path stroke-linejoin="round" d="M0,24.5L135,24.5" fill="none" stroke="#454545"/><text class="st5"><tspan x="8" y="16.1" style="white-space:pre">上传失败，抛出异常</tspan></text></g><g transform="matrix(1,0,0,1,957.72,200.5)" ed:height="24.5" ed:parentid="234" ed:width="212" id="238"><path d="M0,0L212,0L212,24.5L0,24.5L0,0z" fill="#ffffff"/><path stroke-linejoin="round" d="M0,24.5L212,24.5" fill="none" stroke="#454545"/><text class="st5"><tspan x="8" y="16.1" style="white-space:pre">拆分成功，得到5个新的docx文件</tspan></text></g><g transform="matrix(1,0,0,1,1212.92,200.5)" ed:height="24.5" ed:parentid="238" ed:width="122" id="240"><path d="M0,0L122,0L122,24.5L0,24.5L0,0z" fill="#ffffff"/><path stroke-linejoin="round" d="M0,24.5L122,24.5" fill="none" stroke="#454545"/><text class="st5"><tspan x="8" y="16.1" style="white-space:pre">保存到临时文件夹</tspan></text></g><g transform="matrix(1,0,0,1,1378.12,200.5)" ed:height="24.5" ed:parentid="240" ed:width="148" id="244"><path d="M0,0L148,0L148,24.5L0,24.5L0,0z" fill="#ffffff"/><path stroke-linejoin="round" d="M0,24.5L148,24.5" fill="none" stroke="#454545"/><text class="st5"><tspan x="8" y="16.1" style="white-space:pre">从临时文件夹获取文件</tspan></text></g><g transform="matrix(1,0,0,1,1569.32,200.5)" ed:height="24.5" ed:parentid="244" ed:width="96" id="246"><path d="M0,0L96,0L96,24.5L0,24.5L0,0z" fill="#ffffff"/><path stroke-linejoin="round" d="M0,24.5L96,24.5" fill="none" stroke="#454545"/><text class="st5"><tspan x="8" y="16.1" style="white-space:pre">进行格式转换</tspan></text></g><g transform="matrix(1,0,0,1,286.12,450.5)" ed:height="43" ed:parentid="101" ed:width="116" id="248"><path stroke-linejoin="round" d="M4,0L112,0C114.7,0,116,1.3,116,4L116,39C116,41.7,114.7,43,112,43L4,43C1.3,43,0,41.7,0,39L0,4C0,1.3,1.3,0,4,0z" stroke-width="2" fill="#ffffff" stroke="#454545"/><text class="st4"><tspan x="18" y="27" style="white-space:pre">智能转换</tspan></text></g><g transform="matrix(1,0,0,1,445.32,401)" ed:height="24.5" ed:parentid="248" ed:width="100" id="250"><path d="M0,0L100,0L100,24.5L0,24.5L0,0z" fill="#ffffff"/><path stroke-linejoin="round" d="M0,24.5L100,24.5" fill="none" stroke="#454545"/><text class="st5"><tspan x="8" y="16.1" style="white-space:pre">上传docx文件</tspan></text></g><g transform="matrix(1,0,0,1,445.32,432)" ed:height="24.5" ed:parentid="248" ed:width="93" id="252"><path d="M0,0L93,0L93,24.5L0,24.5L0,0z" fill="#ffffff"/><path stroke-linejoin="round" d="M0,24.5L93,24.5" fill="none" stroke="#454545"/><text class="st5"><tspan x="8" y="16.1" style="white-space:pre">上传doc文件</tspan></text></g><g transform="matrix(1,0,0,1,445.32,463)" ed:height="24.5" ed:parentid="248" ed:width="91" id="254"><path d="M0,0L91,0L91,24.5L0,24.5L0,0z" fill="#ffffff"/><path stroke-linejoin="round" d="M0,24.5L91,24.5" fill="none" stroke="#454545"/><text class="st5"><tspan x="8" y="16.1" style="white-space:pre">上传pdf文件</tspan></text></g><g transform="matrix(1,0,0,1,445.32,494)" ed:height="24.5" ed:parentid="248" ed:width="87" id="256"><path d="M0,0L87,0L87,24.5L0,24.5L0,0z" fill="#ffffff"/><path stroke-linejoin="round" d="M0,24.5L87,24.5" fill="none" stroke="#454545"/><text class="st5"><tspan x="8" y="16.1" style="white-space:pre">上传txt文件</tspan></text></g><g transform="matrix(1,0,0,1,571.32,425.75)" ed:height="68" ed:parentid="263" ed:width="553.1199999999999" ed:layout="rightmap" id="264"><path stroke-linejoin="round" d="M34,0L519.1,0C537.9,0,553.1,15.2,553.1,34C553.1,52.8,537.9,68,519.1,68L34,68C15.2,68,0,52.8,0,34C0,15.2,15.2,0,34,0z" stroke-width="2" fill="#ffffff" stroke="#00af54"/><text class="st2"><tspan x="27" y="19" style="white-space:pre">使用接口多实现特性对不同需求编写代码，编写多个不同格式转换的工具类，然后编写</tspan><tspan x="27" y="38" style="white-space:pre">工厂类，在文件上传后判断文件的类型，如果是其中一种类型则调用对应类型的工具类</tspan><tspan x="27" y="57" style="white-space:pre">处理文件</tspan></text></g><g transform="matrix(1,0,0,1,1167.64,371)" ed:height="24.5" ed:parentid="264" ed:width="473" id="269"><path d="M0,0L473,0L473,24.5L0,24.5L0,0z" fill="#ffffff"/><path stroke-linejoin="round" d="M0,24.5L473,24.5" fill="none" stroke="#454545"/><text class="st5"><tspan x="8" y="16.1" style="white-space:pre">其中权利要求书以确定需求是需要获取权利要求数并获取对应的文本（已完成）</tspan></text></g><g transform="matrix(1,0,0,1,1167.64,499.5)" ed:height="24.5" ed:parentid="264" ed:width="96" id="271"><path d="M0,0L96,0L96,24.5L0,24.5L0,0z" fill="#ffffff"/><path stroke-linejoin="round" d="M0,24.5L96,24.5" fill="none" stroke="#454545"/><text class="st5"><tspan x="8" y="16.1" style="white-space:pre">基本实现思路</tspan></text></g><g transform="matrix(1,0,0,1,1306.84,499.5)" ed:height="24.5" ed:parentid="271" ed:width="96" id="273"><path d="M0,0L96,0L96,24.5L0,24.5L0,0z" fill="#ffffff"/><path stroke-linejoin="round" d="M0,24.5L96,24.5" fill="none" stroke="#454545"/><text class="st5"><tspan x="8" y="16.1" style="white-space:pre">上传一个文件</tspan></text></g><g transform="matrix(1,0,0,1,1446.04,484)" ed:height="24.5" ed:parentid="273" ed:width="96" id="275"><path d="M0,0L96,0L96,24.5L0,24.5L0,0z" fill="#ffffff"/><path stroke-linejoin="round" d="M0,24.5L96,24.5" fill="none" stroke="#454545"/><text class="st5"><tspan x="8" y="16.1" style="white-space:pre">判断文件类型</tspan></text></g><g transform="matrix(1,0,0,1,1446.04,515)" ed:height="24.5" ed:parentid="273" ed:width="83" id="277"><path d="M0,0L83,0L83,24.5L0,24.5L0,0z" fill="#ffffff"/><path stroke-linejoin="round" d="M0,24.5L83,24.5" fill="none" stroke="#454545"/><text class="st5"><tspan x="8" y="16.1" style="white-space:pre">判断文件名</tspan></text></g><g transform="matrix(1,0,0,1,1568.04,496.75)" ed:height="30" ed:parentid="281" ed:width="133.76" ed:layout="rightmap" id="282"><path stroke-linejoin="round" d="M15,0L118.8,0C127,0,133.8,6.7,133.8,15C133.8,23.3,127,30,118.8,30L15,30C6.7,30,0,23.3,0,15C0,6.7,6.7,0,15,0z" stroke-width="2" fill="#ffffff" stroke="#00af54"/><text class="st2"><tspan x="13" y="18.9" style="white-space:pre">判断是否符合要求</tspan></text></g><g transform="matrix(1,0,0,1,1745,448.5)" ed:height="24.5" ed:parentid="282" ed:width="226" id="283"><path d="M0,0L226,0L226,24.5L0,24.5L0,0z" fill="#ffffff"/><path stroke-linejoin="round" d="M0,24.5L226,24.5" fill="none" stroke="#454545"/><text class="st5"><tspan x="8" y="16.1" style="white-space:pre">判断成功，调用对应工具类进行处理</tspan></text></g><g transform="matrix(1,0,0,1,1745,526)" ed:height="24.5" ed:parentid="282" ed:width="135" id="285"><path d="M0,0L135,0L135,24.5L0,24.5L0,0z" fill="#ffffff"/><path stroke-linejoin="round" d="M0,24.5L135,24.5" fill="none" stroke="#454545"/><text class="st5"><tspan x="8" y="16.1" style="white-space:pre">判断失败，抛出异常</tspan></text></g><g transform="matrix(1,0,0,1,2014.2,402)" ed:height="24.5" ed:parentid="283" ed:width="74" id="287"><path d="M0,0L74,0L74,24.5L0,24.5L0,0z" fill="#ffffff"/><path stroke-linejoin="round" d="M0,24.5L74,24.5" fill="none" stroke="#454545"/><text class="st5"><tspan x="8" y="16.1" style="white-space:pre">docx格式</tspan></text></g><g transform="matrix(1,0,0,1,2131.4,402)" ed:height="24.5" ed:parentid="287" ed:width="200" id="289"><path d="M0,0L200,0L200,24.5L0,24.5L0,0z" fill="#ffffff"/><path stroke-linejoin="round" d="M0,24.5L200,24.5" fill="none" stroke="#454545"/><text class="st5"><tspan x="8" y="16.1" style="white-space:pre">拆分五书中已实现，搬代码即可</tspan></text></g><g transform="matrix(1,0,0,1,2014.2,433)" ed:height="24.5" ed:parentid="283" ed:width="67" id="291"><path d="M0,0L67,0L67,24.5L0,24.5L0,0z" fill="#ffffff"/><path stroke-linejoin="round" d="M0,24.5L67,24.5" fill="none" stroke="#454545"/><text class="st5"><tspan x="8" y="16.1" style="white-space:pre">doc格式</tspan></text></g><g transform="matrix(1,0,0,1,2014.2,464)" ed:height="24.5" ed:parentid="283" ed:width="65" id="293"><path d="M0,0L65,0L65,24.5L0,24.5L0,0z" fill="#ffffff"/><path stroke-linejoin="round" d="M0,24.5L65,24.5" fill="none" stroke="#454545"/><text class="st5"><tspan x="8" y="16.1" style="white-space:pre">pdf格式</tspan></text></g><g transform="matrix(1,0,0,1,2014.2,495)" ed:height="24.5" ed:parentid="283" ed:width="61" id="295"><path d="M0,0L61,0L61,24.5L0,24.5L0,0z" fill="#ffffff"/><path stroke-linejoin="round" d="M0,24.5L61,24.5" fill="none" stroke="#454545"/><text class="st5"><tspan x="8" y="16.1" style="white-space:pre">txt格式</tspan></text></g></svg>