<?xml version="1.0" standalone="no"?><!DOCTYPE svg PUBLIC "-//W3C//DTD SVG 1.1//EN" "http://www.w3.org/Graphics/SVG/1.1/DTD/svg11.dtd"><svg t="1725094198876" class="icon" viewBox="0 0 1024 1024" version="1.1" xmlns="http://www.w3.org/2000/svg" p-id="15068" width="256" height="256" xmlns:xlink="http://www.w3.org/1999/xlink"><path d="M1004.8 680.0128c6.4 0 12.8 6.4 14.4128 16 1.5872 0 3.1744 20.7872 3.1744 36.7872S1019.2128 768 1019.2128 768c-1.6128 9.6-8.0128 16-14.4128 16h-1.6128c-23.9872 0-43.1872 20.8128-43.1872 46.4128 0 7.9872 3.2 17.5872 3.2 17.5872 3.2 9.6 1.6128 20.8128-6.4 25.6l-41.6 24.0128c-3.2 1.5872-4.8128 1.5872-8.0128 1.5872-6.4 0-12.8-1.6128-15.9744-6.4-4.8128-6.4-22.4256-22.4-35.2256-22.4-14.3872 0-30.3872 16-35.1744 20.8128-4.8128 3.1744-9.6256 6.4-16.0256 6.4-3.2 0-4.7872 0-7.9872-1.6128l-40.0128-24.0128c-7.9872-6.4-9.6-17.5872-6.4-25.6 0 0 3.2-9.5744 3.2-17.5872 0-25.6-19.2-46.4128-43.1872-46.4128h-1.6128c-6.4 0-12.8-6.4-14.3872-16 0-1.5872-3.2-19.2-3.2-35.2s3.2-35.2 3.2-35.2c1.6128-9.6 8.0128-16 14.4128-16h1.5872c24.0128 0 43.2128-20.7872 43.2128-46.3872 0-8.0128-3.2-17.6128-3.2-17.6128-3.2-9.6-1.6128-20.7872 6.4-25.6l43.1872-25.6c3.2-1.5872 4.8128-1.5872 8.0128-1.5872 6.4 0 12.8 1.6128 16 6.4 4.7872 6.4 20.7872 20.8128 33.5872 20.8128s28.8-14.4128 33.6128-19.2c4.7872-3.2 9.5744-6.4 15.9744-6.4 3.2256 0 4.8128 0 8.0128 1.5872l41.6 24.0128c8.0128 6.4 9.6 17.5872 6.4 25.6 0 0-3.2 9.6-3.2 17.5872 0 25.6 19.2 46.4128 43.2128 46.4128h1.5872z" fill="#FF7D48" p-id="15069"></path><path d="M92.2624 801.024l59.8272-44.2368 30.464 41.1904-59.8528 44.2112-30.464-41.1648z m79.4624-58.7264l78.5152-58.0352 30.4128 41.1648-78.4896 58.0352-30.4384-41.1648z m98.1248-72.5504l78.5152-58.0096 30.4384 41.1648-78.5152 58.0352-30.4384-41.1904z m365.8496-33.4336l51.2 17.92-16.896 48.3328-51.2-17.92 16.896-48.3328z m-128-44.8l102.4 35.84-16.896 48.3328-102.4-35.84 16.896-48.3328z m-110.848-15.616l-28.8512 21.3248 30.4128 41.1648 28.3648-20.9664 38.4 13.4656 16.9472-48.3328-34.048-11.9296v-39.8592h-51.2v45.1072z m51.2-190.208V501.76h-51.2v-116.0704h51.2z m0-145.0496v116.0448h-51.2V240.64h51.2z m0-29.0048h-51.2V128h51.2v83.6352z" fill="#FF7D48" p-id="15070"></path><path d="M878.1824 266.3936a25.6 25.6 0 0 1-5.376 35.7888L588.8 512.1024V934.4a25.6 25.6 0 0 1-51.2 0V517.8368L120.1152 382.72a25.6 25.6 0 0 1 15.7696-48.6912L558.592 470.784l283.8272-209.7664a25.6 25.6 0 0 1 35.7888 5.376z" fill="#FF7D48" p-id="15071"></path><path d="M386.1248 97.6128a38.4 38.4 0 0 1 34.688-6.3488l460.8 140.8A38.4 38.4 0 0 1 908.8 268.8v236.8a38.4 38.4 0 0 1-76.8 0v-208.384L417.3568 170.5216 166.4 364.4672v413.7472l403.1488 126.72 99.712-69.376a38.4 38.4 0 0 1 43.8784 63.0272l-115.2 80.128a38.4 38.4 0 0 1-33.4592 5.12l-448-140.8A38.4 38.4 0 0 1 89.6 806.4v-460.8a38.4 38.4 0 0 1 14.9248-30.3872l281.6-217.6z" fill="#FF7D48" p-id="15072"></path><path d="M512 128a102.4 102.4 0 1 1-204.8 0 102.4 102.4 0 0 1 204.8 0zM230.4 332.8a102.4 102.4 0 1 1-204.8 0 102.4 102.4 0 0 1 204.8 0zM665.6 486.4a102.4 102.4 0 1 1-204.8 0 102.4 102.4 0 0 1 204.8 0zM665.6 921.6a102.4 102.4 0 1 1-204.8 0 102.4 102.4 0 0 1 204.8 0zM230.4 793.6a102.4 102.4 0 1 1-204.8 0 102.4 102.4 0 0 1 204.8 0zM972.8 281.6a102.4 102.4 0 1 1-204.8 0 102.4 102.4 0 0 1 204.8 0z" fill="#FF7D48" p-id="15073"></path></svg>