<?xml version="1.0" standalone="no"?><!DOCTYPE svg PUBLIC "-//W3C//DTD SVG 1.1//EN" "http://www.w3.org/Graphics/SVG/1.1/DTD/svg11.dtd"><svg t="1724029976032" class="icon" viewBox="0 0 1024 1024" version="1.1" xmlns="http://www.w3.org/2000/svg" p-id="5232" xmlns:xlink="http://www.w3.org/1999/xlink" width="200" height="200"><path d="M800 192a32 32 0 0 1 32 32v576a32 32 0 0 1-32 32H224a32 32 0 0 1-32-32V224a32 32 0 0 1 32-32h576z m0 32H224v576h576V224z m-93.248 464.864a16 16 0 0 1-22.944 22.336c-48.32-49.6-96.864-51.264-152.192-4.32l-5.76 5.024c-69.984 63.104-144.384 63.104-217.12 0.224a16 16 0 0 1 20.928-24.192c58.624 50.656 113.12 52.352 168.96 5.248l5.792-5.024c70.176-63.264 140-63.264 202.336 0.704z m0-96a16 16 0 0 1-22.944 22.336c-48.32-49.6-96.864-51.264-152.192-4.32l-5.76 5.024c-69.984 63.104-144.384 63.104-217.12 0.224a16 16 0 0 1 20.928-24.192c58.624 50.656 113.12 52.352 168.96 5.248l5.792-5.024c70.176-63.264 140-63.264 202.336 0.704zM512 271.264l6.624 9.152 12.384 17.728 11.36 16.8 5.248 8.064 9.728 15.488c25.984 42.56 38.976 74.4 38.976 95.52a84.32 84.32 0 0 1-168.64 0c0-23.584 16.224-60.608 48.704-111.008l10.784-16.352 5.824-8.512 12.384-17.728 6.624-9.184z m0 55.84l-2.272 3.456c-31.744 47.872-48.32 82.4-49.92 100.704l-0.128 2.752a52.32 52.32 0 1 0 104.64 0c0-14.528-11.552-41.696-34.72-79.52l-9.92-15.68-7.68-11.712z" fill="#666666" p-id="5233"></path></svg>