<?xml version="1.0" standalone="no"?><!DOCTYPE svg PUBLIC "-//W3C//DTD SVG 1.1//EN" "http://www.w3.org/Graphics/SVG/1.1/DTD/svg11.dtd"><svg t="1723794371671" class="icon" viewBox="0 0 1024 1024" version="1.1" xmlns="http://www.w3.org/2000/svg" p-id="6684" xmlns:xlink="http://www.w3.org/1999/xlink" width="200" height="200"><path d="M1002.242 510.992c-30.798-11.82-63.678-12.562-95.878-17.852-1.288-0.214-2.584-0.382-3.874-0.586-20.636-10.668-42.102-19.808-60.242-34.696-25.972-21.308-47.842-50.332-61.538-80.934-12.482-27.89-16.228-59.25-17.166-89.516-0.95-30.602 2.11-62.734 12.668-91.652a15.12 15.12 0 0 0 0.876-3.836l0.152-0.218c18.474-25.906 38.202-52.796 46.668-83.898a18.6 18.6 0 0 0 1.134-4.41c0.034-0.144 0.078-0.286 0.11-0.43-0.018 0-0.036 0-0.054-0.004 0.116-0.934 0.2-1.898 0.226-2.942 0.338-12.872-19.096-12.848-21.768-1.254-0.032 0.14-0.074 0.274-0.106 0.414-0.122 0.144-0.222 0.258-0.36 0.426-3.054 3.136-3.592 6.672-2.594 9.774-7.068 20.738-19.942 39.54-32.35 57.3-2.65 3.79-5.26 7.614-7.876 11.43-22.862-4.262-46.348 1.446-69.4 2.246-27.076 0.942-56.3-9.152-81.492-18.102-23.586-8.378-46.124-16.7-66.89-31.07-18.752-12.976-35.304-29.028-50.354-46.132-1.62-22.46-4.374-44.95-12.378-65.82-4.22-11-17.98-8.378-20.808 1.192-6.38 5.09-3.322 16.094 4.182 18.758 3.608 13.05 5.478 26.622 6.666 40.292-1.392 1.882-2.292 4.324-2.392 7.238-3.728 107.406-152.28 96.782-226.864 102.18a10.664 10.664 0 0 0-4.776 1.554c-14.758-14.168-28.984-28.922-42.256-44.73-9.032-10.762-27.364 1.43-18.238 12.3a592.226 592.226 0 0 0 22.856 25.598c-0.022 33.676-0.872 66.882-4.778 100.41-5.424 46.566-15.522 92.632-30.834 136.96-15.73 45.528-37 87.872-64.87 127.184-9.588 13.524-19.9 25.02-31.53 36.734-9.548 9.618-19.05 20.606-23.314 31.39-1.244 3.148-1.346 6.14-0.272 8.878-8.916 4.372-10.08 19.672 1.77 20.464 3.076 0.208 6.136 0.3 9.186 0.312 1.268 2.688 3.712 4.852 7.518 5.602 44.188 8.714 80.66 41.68 112.636 71.41 12.616 11.73 25.87 22.7 38.646 34.246 4.828 4.364 10.086 9.054 14.912 14.16 2.482 6.98 5.12 13.882 8.164 20.618-15.91 15.008-31.73 30.122-47.238 45.582-10.078 10.046 6.544 24.48 16.53 14.524 13.792-13.75 27.91-27.156 42.124-40.46 2.16 1.624 4.986 2.618 7.454 2.172 125.93-22.656 246.848 49.418 320.018 148.172 2.248 3.036 5.278 4.458 8.306 4.632 4.852 9.618 22.226 7.004 20.784-5.628-0.278-2.438-0.536-4.878-0.802-7.316 4.008-1.52 7.156-5.14 6.8-10.684-3.916-61.196 38.398-112.972 86.678-145.278 47.788-31.972 113.958-52.332 170.444-33.012 5.254 1.796 9.918 0.34 12.752-2.668 7.45 6.066 14.988 12.02 22.712 17.738-1.808 8.594 11.098 17.14 19.692 9.336-0.602 0.71-0.144 0.75 1.374 0.122 7.752-1.648 10.008-14.184 3.624-18.644-24.488-17.118-47.056-36.648-69.722-56.058-14.504-29.688-18.186-63.934-12.312-97.464 6.506-37.144 34.984-85.328 75.62-91.23 5.014-0.73 8.15-3.718 9.318-7.336 14.198 1.598 28.434 3.07 42.302 6.144 0.71 5.23 4.626 10.222 11.376 10.192 6.35-0.036 11.98-0.946 17.79-3.59 7.71-3.508 11.048-16.48 1.258-20.234z m-179.576-41.09c6.474 6.036 13.462 11.21 20.752 15.882-16.278-1.414-32.566-2.676-48.768-4.242-12.164-1.172-24.376-2.532-36.622-3.938-0.952-1.872-2.296-3.536-4.038-4.704-47.798-32.094-65.876-99.324-67.75-154.75a3225.71 3225.71 0 0 0 28.442-37.442c10.07-13.464 19.696-27.204 29.224-40.996-1.744 14.18-2.446 28.52-2.414 42.876 0.074 34.246 4.95 69.95 18.45 101.61 13.994 32.81 36.784 61.524 62.724 85.704z m-104.906 137.056c-11.15-8.296-22.296-16.602-33.438-24.906-1.012-17.574-9.262-34.664-5.372-52.184 3.126-14.086 15.016-29.094 28.616-35.934 9.906 1.04 19.802 2.16 29.684 3.304-19.764 33.528-26.362 71.398-19.49 109.72z m-60.954-56.852c0.64 4.476 1.76 8.976 2.856 13.496-10.474-7.84-20.954-15.676-31.388-23.57a4415.254 4415.254 0 0 1-61.088-47.102c0.646 0.016 1.316-0.012 2.028-0.114 35.448-5.098 71.192-4.528 106.912-1.778-6.682 7.504-12.054 16.144-15.558 24.672-4.564 11.106-5.448 22.594-3.762 34.396z m-260.126-10.18a1197.804 1197.804 0 0 1-19.796 6.016c-3.164-0.25-5.816 0.684-7.858 2.292a1492.296 1492.296 0 0 1-10.782 3.042 215.286 215.286 0 0 0 34.324-114.004c0.342-28.058-4.544-57.168-14.322-83.488a152.736 152.736 0 0 0-3.166-7.774c22.21 21.208 44.158 42.7 66.288 63.984 0.344 0.332 0.69 0.66 1.034 0.988 0.908 29.102 3.09 60.43-9.84 86.672-5.756 11.684-13.944 22.078-22.998 31.368-3.554 3.646-7.982 7.674-12.884 10.904z m-8.368 97.508c-2.086-23.106-13.858-46.09-29.976-63.364a1259.92 1259.92 0 0 0 22.31-6.34c4.72-0.238 9.274-1.16 13.658-2.606 10.588 21.876 3.218 50.942-5.992 72.31z m-126.544-393.032c13.688 12.102 27.568 24.008 41.438 35.93a1419.854 1419.854 0 0 1 21.956 19.336c9.052 17.426 19.782 33.926 28.2 51.696 11.252 23.754 15.852 50.714 17.082 76.79 2.248 47.7-14.696 94.992-45.606 131.34-0.218 0.258-0.406 0.524-0.596 0.786a1810.694 1810.694 0 0 1-20.066 4.964c-42.462 10.226-84.888 20.624-127.312 31.016-17.728 4.34-35.21 9.148-52.682 14.27 50.592-54.508 99.564-112.86 129.936-181.122 15.546-34.942 21.74-71.808 22.222-109.864 0.33-26.13-7.632-50.512-14.572-75.142z m203 187.902c15.234 14.41 30.596 28.684 46.208 42.688a649.02 649.02 0 0 0 13.808 11.992c-0.618 0.804-1.244 1.602-1.862 2.406-26.166 13.406-53.392 25.016-81.202 35.25a211.108 211.108 0 0 0 5.874-8.868c15.59-24.886 17.482-54.35 17.174-83.468z m93.592 53.732c-1.054-0.832-2.12-1.648-3.172-2.48l2.912-3.774a12.782 12.782 0 0 0 0.26 6.254z m-5.01-35.99c-2.448-8.45-3.414-17.644-4.666-25.762-2.156-13.976-3.962-27.984-5.64-42.02a101.824 101.824 0 0 0 10.294 5.882 108.43 108.43 0 0 0 20.94 7.688c6.576 1.684 14.334 0.512 20.942 1.93 0.042 0.122 0.09 0.242 0.134 0.364-13.992 17.314-28.23 34.418-42.004 51.918z m-138.618 107.102c26.6-8.73 52.856-18.508 78.434-29.636-1.106 1.386-2.188 2.792-3.298 4.18-20.446 25.5-44.842 48.476-67.248 72.282l-2.706 2.876c2.52-17.002 1.62-34.296-5.182-49.702z m62.452 20.938c21.096-22.414 40.426-46.234 59.32-70.426 0.58 38.614 4.818 76.832 9.934 114.972-6.754-3.168-13.93-5.308-21.742-6.176-14.76-1.636-29.412 1.312-44.146 1.332-14.222 0.02-28.642 0.45-42.726 2.458a9166.83 9166.83 0 0 1 39.36-42.16z m119.56-147.492c3.168-3.89 6.326-7.79 9.49-11.684 9.268 13.446 21.654 25.208 33.782 35.132 6.482 5.308 13.396 9.91 20.606 13.96-31.13-1.778-62.238-1.566-93.098 2.872a11.934 11.934 0 0 0-3.298 0.964c10.694-13.85 21.452-27.662 32.518-41.244z m11.25-51.692c-11.85-4.52-24.688-2.364-36.712-6.852-10.668-3.98-22.568-11.624-31.836-20.07-3.628-28.836-8.158-57.196-14.174-85.532 13.876 8.652 28.95 15.758 42.348 22.628 28.416 14.574 59.876 26.914 92.184 27.394-16.502 21.222-33.188 42.304-49.856 63.386a12.326 12.326 0 0 0-1.954-0.954z m-79.904 55.524c1.884 11.406 3.924 23.692 9.006 34.328-19.404-16.484-37.898-34.148-56.374-51.594a3714.382 3714.382 0 0 1-15.228-14.464c19.026-2.894 41.32-11.766 54.716-26.204l0.438 3.746c2.096 18.126 4.472 36.188 7.442 54.188z m-118.462 216.12c20.532-9.668 44.38-10.516 66.734-10.786 24.696-0.296 50.366-7.208 71.476 9.258 0.792 0.618 1.618 1.086 2.454 1.476 3.714 26.286 7.528 52.574 10.538 78.96a1784.17 1784.17 0 0 1 3.396 32.898l-0.136 0.688c-14.922-27.468-35.012-51.356-61.15-70.594-18.138-13.348-37.572-23.77-58.99-30.742-12.19-3.968-24.808-6.262-37.546-7.692 1.076-1.148 2.148-2.308 3.224-3.466z m148.966-136.276c9.132 7.122 18.322 14.168 27.502 21.218 17.04 13.09 34.188 26.036 51.372 38.938-14.562 0.972-29.15 4.636-41.834 9.192-10.452 3.754-21.07 9.16-29.928 16.278-3.526-28.42-6.292-56.912-7.112-85.626z m97.888-75.216c-13.136-10.042-27.164-23.078-35.684-38.144a5349.354 5349.354 0 0 0 45.29-56.852c5.02 43.684 20.042 88.558 48.266 121.672-20.698-5.55-40.672-13.53-57.872-26.676zM593.164 179.722c28.756 9.132 56.796 19.468 87.124 22.21 21.966 1.984 44.146-4.43 65.976-3.286-7.626 11.23-15.276 22.438-23.158 33.464-14.902 20.848-30.246 41.372-45.822 61.718a11.97 11.97 0 0 0-3.03-0.046c-34.12 3.914-67.108-9.118-96.844-24.414-19.404-9.984-43.542-20.208-59.934-36.418-9.406-37.18-20.552-75.536-23.196-113.664l-0.038-0.566c28.18 27.268 60.278 48.73 98.922 61.002z m-95.774 64.086c0.112 0.124 0.218 0.25 0.328 0.376 0.572 2.332 1.142 4.664 1.718 6.996 7.35 29.774 12.308 59.562 16.348 89.668-2.784 1.21-4.96 3.738-5.484 7.808-2.884 22.406-39.33 32.758-58.048 33.128-2.654 0.05-4.75 0.864-6.312 2.144-30.87-29.742-61.53-59.7-92.964-88.852 26.292-1.508 52.374-5.782 77.514-13.882 15.634-5.04 30.646-12.128 44.648-20.696 7.392-4.518 15.76-9.94 22.252-16.69z m-23.088-103.656c2.358 15.668 6.458 31.286 9.856 46.61 2.01 9.062 4.11 18.106 6.246 27.14-2.004 1.398-3.538 3.614-4.102 6.754-1.986 11.036-20.05 19.668-28.746 24.77-12.592 7.394-26.402 12.606-40.32 16.886-26.628 8.188-54.758 11.062-82.55 11.43-2.042-1.128-4.366-1.55-6.632-1.372-23.668-21.032-47.938-41.3-71.366-62.468 74.474-4.324 178.982-5.292 217.614-69.75zM89.41 620.136c-7.962 1.786-16.014 3.128-24.116 3.754a12.64 12.64 0 0 0 0.29-5.07c0.834-1.48 1.944-3.062 3.79-5.258 5.218-6.214 11.056-11.93 16.782-17.668 13.002-13.04 23.748-26.91 34.24-42.098 27.854-40.308 48.476-83.606 64.192-129.95 15.338-45.222 25.254-91.848 30.778-139.254 3.066-26.328 4.184-52.528 4.546-78.864a955.078 955.078 0 0 0 13.084 12.524c6.078 31.07 19.12 60.628 21.228 92.5 2.448 36.984-5.196 75.008-19.818 108.864-31.8 73.632-87.896 135.32-142.28 192.96-2.134 2.264-2.916 4.944-2.716 7.56z m100.952 88.356c-26.28-25.836-57.42-52.598-92.3-67.984 3.702-0.832 7.394-1.73 11.08-2.684 29.77 17.43 60.106 33.95 82.8 60.754 7.314 8.636 13.088 17.766 17.924 27.418-6.658-5.668-13.272-11.378-19.504-17.504z m56.152 51.8c-2.552-7.52-4.952-15.106-7.586-22.59-7.386-20.984-18.108-39.426-32.798-56.132-19.294-21.942-43.192-37.414-67.824-52.042 11.61-3.458 23.204-6.93 34.85-9.804 45.004-11.114 90.012-22.352 135.136-32.96a1522.962 1522.962 0 0 0 25.356-6.196c20.898 16.828 40.318 51.762 31.598 77.292-0.938 2.746-1.066 5.348-0.516 7.624l-10.03 10.656c-31.6 33.574-65.174 65.008-98.736 96.476-2.776-4.326-6.004-8.428-9.45-12.324z m24.36 28.9c24.04-22.292 48.074-44.59 71.146-67.894 15.286-15.438 30.328-31.132 45.264-46.942 15.958 1.09 31.792 3.184 47.284 7.398 19.51 5.312 37.52 15.5 53.844 27.226 35.496 25.488 58.41 60.386 72.304 101.41 1.498 4.426 4.72 6.624 8.212 7.098 2.948 37.958 5.56 75.95 9.198 113.844-74.634-90.41-188.224-155.464-307.252-142.14z m310.38-74.406c-3.54-29.152-7.934-58.188-11.926-87.254 7.31-12.73 25.354-20.39 37.756-24.606 18.002-6.124 43.12-10.832 61.122-2.316a11.2 11.2 0 0 0 5.608 1.004c14.676 10.934 29.36 21.856 44.038 32.79-1.73 0.2-3.406 0.39-4.994 0.542-12.578 1.21-25.072 3.71-37.244 7.07-22.256 6.14-43.51 17.024-61.162 31.918-13.952 11.774-24.892 25.632-33.198 40.852z m263.002 22.644c-55.792-7.68-113.836 11.426-160.544 42.032-38.382 25.152-72.106 62.058-87.59 105.336-3.268-40.468-5.994-80.988-9.746-121.414 5.97-26.442 18.426-50.79 39.168-70.122 29.242-27.25 70.598-36.796 109.688-37.516 1.772 1.266 4.016 2.028 6.716 1.98 2.004-0.04 4.088-0.258 5.99-0.89 26.8 20 53.686 39.96 79.346 61.402a1701.004 1701.004 0 0 1 11.256 9.5 154.772 154.772 0 0 0 5.716 9.692z m-20.83-126.84c-5.266 24.262-4.13 52.422 0.676 76.918-13.828-10.992-27.852-21.734-41.978-32.398a9612.86 9612.86 0 0 0-42.708-32.02c2.07-2.542 3.11-5.984 2.068-9.972-10.206-39.086-3.488-79.968 19.876-113.094 9.72 1.106 19.422 2.168 29.096 3.118 33.234 3.258 67.59 4.136 100.642 9.632-35.686 18.444-59.454 59.94-67.672 97.816z" fill="" p-id="6685"></path><path d="M1002.242 510.992c-30.798-11.82-63.678-12.562-95.878-17.852-1.288-0.214-2.584-0.382-3.874-0.586-20.636-10.668-42.102-19.808-60.242-34.696-25.972-21.308-47.842-50.332-61.538-80.934-12.482-27.89-16.228-59.25-17.166-89.516-0.95-30.602 2.11-62.734 12.668-91.652a15.12 15.12 0 0 0 0.876-3.836l0.152-0.218c18.474-25.906 38.202-52.796 46.668-83.898a18.6 18.6 0 0 0 1.134-4.41c0.034-0.144 0.078-0.286 0.11-0.43-0.018 0-0.036 0-0.054-0.004 0.116-0.934 0.2-1.898 0.226-2.942 0.338-12.872-19.096-12.848-21.768-1.254-0.032 0.14-0.074 0.274-0.106 0.414-0.122 0.144-0.222 0.258-0.36 0.426-3.054 3.136-3.592 6.672-2.594 9.774-7.068 20.738-19.942 39.54-32.35 57.3-2.65 3.79-5.26 7.614-7.876 11.43-22.862-4.262-46.348 1.446-69.4 2.246-27.076 0.942-56.3-9.152-81.492-18.102-23.586-8.378-46.124-16.7-66.89-31.07-18.752-12.976-35.304-29.028-50.354-46.132-1.62-22.46-4.374-44.95-12.378-65.82-4.22-11-17.98-8.378-20.808 1.192-6.38 5.09-3.322 16.094 4.182 18.758 3.608 13.05 5.478 26.622 6.666 40.292-1.392 1.882-2.292 4.324-2.392 7.238-3.728 107.406-152.28 96.782-226.864 102.18a10.664 10.664 0 0 0-4.776 1.554c-14.758-14.168-28.984-28.922-42.256-44.73-9.032-10.762-27.364 1.43-18.238 12.3a592.226 592.226 0 0 0 22.856 25.598c-0.022 33.676-0.872 66.882-4.778 100.41-5.424 46.566-15.522 92.632-30.834 136.96-15.73 45.528-37 87.872-64.87 127.184-9.588 13.524-19.9 25.02-31.53 36.734-9.548 9.618-19.05 20.606-23.314 31.39-1.244 3.148-1.346 6.14-0.272 8.878-8.916 4.372-10.08 19.672 1.77 20.464 3.076 0.208 6.136 0.3 9.186 0.312 1.268 2.688 3.712 4.852 7.518 5.602 44.188 8.714 80.66 41.68 112.636 71.41 12.616 11.73 25.87 22.7 38.646 34.246 4.828 4.364 10.086 9.054 14.912 14.16 2.482 6.98 5.12 13.882 8.164 20.618-15.91 15.008-31.73 30.122-47.238 45.582-10.078 10.046 6.544 24.48 16.53 14.524 13.792-13.75 27.91-27.156 42.124-40.46 2.16 1.624 4.986 2.618 7.454 2.172 125.93-22.656 246.848 49.418 320.018 148.172 2.248 3.036 5.278 4.458 8.306 4.632 4.852 9.618 22.226 7.004 20.784-5.628-0.278-2.438-0.536-4.878-0.802-7.316 4.008-1.52 7.156-5.14 6.8-10.684-3.916-61.196 38.398-112.972 86.678-145.278 47.788-31.972 113.958-52.332 170.444-33.012 5.254 1.796 9.918 0.34 12.752-2.668 7.45 6.066 14.988 12.02 22.712 17.738-1.808 8.594 11.098 17.14 19.692 9.336-0.602 0.71-0.144 0.75 1.374 0.122 7.752-1.648 10.008-14.184 3.624-18.644-24.488-17.118-47.056-36.648-69.722-56.058-14.504-29.688-18.186-63.934-12.312-97.464 6.506-37.144 34.984-85.328 75.62-91.23 5.014-0.73 8.15-3.718 9.318-7.336 14.198 1.598 28.434 3.07 42.302 6.144 0.71 5.23 4.626 10.222 11.376 10.192 6.35-0.036 11.98-0.946 17.79-3.59 7.71-3.508 11.048-16.48 1.258-20.234z m-179.576-41.09c6.474 6.036 13.462 11.21 20.752 15.882-16.278-1.414-32.566-2.676-48.768-4.242-12.164-1.172-24.376-2.532-36.622-3.938-0.952-1.872-2.296-3.536-4.038-4.704-47.798-32.094-65.876-99.324-67.75-154.75a3225.71 3225.71 0 0 0 28.442-37.442c10.07-13.464 19.696-27.204 29.224-40.996-1.744 14.18-2.446 28.52-2.414 42.876 0.074 34.246 4.95 69.95 18.45 101.61 13.994 32.81 36.784 61.524 62.724 85.704z m-104.906 137.056c-11.15-8.296-22.296-16.602-33.438-24.906-1.012-17.574-9.262-34.664-5.372-52.184 3.126-14.086 15.016-29.094 28.616-35.934 9.906 1.04 19.802 2.16 29.684 3.304-19.764 33.528-26.362 71.398-19.49 109.72z m-60.954-56.852c0.64 4.476 1.76 8.976 2.856 13.496-10.474-7.84-20.954-15.676-31.388-23.57a4415.254 4415.254 0 0 1-61.088-47.102c0.646 0.016 1.316-0.012 2.028-0.114 35.448-5.098 71.192-4.528 106.912-1.778-6.682 7.504-12.054 16.144-15.558 24.672-4.564 11.106-5.448 22.594-3.762 34.396z m-260.126-10.18a1197.804 1197.804 0 0 1-19.796 6.016c-3.164-0.25-5.816 0.684-7.858 2.292a1492.296 1492.296 0 0 1-10.782 3.042 215.286 215.286 0 0 0 34.324-114.004c0.342-28.058-4.544-57.168-14.322-83.488a152.736 152.736 0 0 0-3.166-7.774c22.21 21.208 44.158 42.7 66.288 63.984 0.344 0.332 0.69 0.66 1.034 0.988 0.908 29.102 3.09 60.43-9.84 86.672-5.756 11.684-13.944 22.078-22.998 31.368-3.554 3.646-7.982 7.674-12.884 10.904z m-8.368 97.508c-2.086-23.106-13.858-46.09-29.976-63.364a1259.92 1259.92 0 0 0 22.31-6.34c4.72-0.238 9.274-1.16 13.658-2.606 10.588 21.876 3.218 50.942-5.992 72.31z m-126.544-393.032c13.688 12.102 27.568 24.008 41.438 35.93a1419.854 1419.854 0 0 1 21.956 19.336c9.052 17.426 19.782 33.926 28.2 51.696 11.252 23.754 15.852 50.714 17.082 76.79 2.248 47.7-14.696 94.992-45.606 131.34-0.218 0.258-0.406 0.524-0.596 0.786a1810.694 1810.694 0 0 1-20.066 4.964c-42.462 10.226-84.888 20.624-127.312 31.016-17.728 4.34-35.21 9.148-52.682 14.27 50.592-54.508 99.564-112.86 129.936-181.122 15.546-34.942 21.74-71.808 22.222-109.864 0.33-26.13-7.632-50.512-14.572-75.142z m203 187.902c15.234 14.41 30.596 28.684 46.208 42.688a649.02 649.02 0 0 0 13.808 11.992c-0.618 0.804-1.244 1.602-1.862 2.406-26.166 13.406-53.392 25.016-81.202 35.25a211.108 211.108 0 0 0 5.874-8.868c15.59-24.886 17.482-54.35 17.174-83.468z m93.592 53.732c-1.054-0.832-2.12-1.648-3.172-2.48l2.912-3.774a12.782 12.782 0 0 0 0.26 6.254z m-5.01-35.99c-2.448-8.45-3.414-17.644-4.666-25.762-2.156-13.976-3.962-27.984-5.64-42.02a101.824 101.824 0 0 0 10.294 5.882 108.43 108.43 0 0 0 20.94 7.688c6.576 1.684 14.334 0.512 20.942 1.93 0.042 0.122 0.09 0.242 0.134 0.364-13.992 17.314-28.23 34.418-42.004 51.918z m-138.618 107.102c26.6-8.73 52.856-18.508 78.434-29.636-1.106 1.386-2.188 2.792-3.298 4.18-20.446 25.5-44.842 48.476-67.248 72.282l-2.706 2.876c2.52-17.002 1.62-34.296-5.182-49.702z m62.452 20.938c21.096-22.414 40.426-46.234 59.32-70.426 0.58 38.614 4.818 76.832 9.934 114.972-6.754-3.168-13.93-5.308-21.742-6.176-14.76-1.636-29.412 1.312-44.146 1.332-14.222 0.02-28.642 0.45-42.726 2.458a9166.83 9166.83 0 0 1 39.36-42.16z m119.56-147.492c3.168-3.89 6.326-7.79 9.49-11.684 9.268 13.446 21.654 25.208 33.782 35.132 6.482 5.308 13.396 9.91 20.606 13.96-31.13-1.778-62.238-1.566-93.098 2.872a11.934 11.934 0 0 0-3.298 0.964c10.694-13.85 21.452-27.662 32.518-41.244z m11.25-51.692c-11.85-4.52-24.688-2.364-36.712-6.852-10.668-3.98-22.568-11.624-31.836-20.07-3.628-28.836-8.158-57.196-14.174-85.532 13.876 8.652 28.95 15.758 42.348 22.628 28.416 14.574 59.876 26.914 92.184 27.394-16.502 21.222-33.188 42.304-49.856 63.386a12.326 12.326 0 0 0-1.954-0.954z m-79.904 55.524c1.884 11.406 3.924 23.692 9.006 34.328-19.404-16.484-37.898-34.148-56.374-51.594a3714.382 3714.382 0 0 1-15.228-14.464c19.026-2.894 41.32-11.766 54.716-26.204l0.438 3.746c2.096 18.126 4.472 36.188 7.442 54.188z m-118.462 216.12c20.532-9.668 44.38-10.516 66.734-10.786 24.696-0.296 50.366-7.208 71.476 9.258 0.792 0.618 1.618 1.086 2.454 1.476 3.714 26.286 7.528 52.574 10.538 78.96a1784.17 1784.17 0 0 1 3.396 32.898l-0.136 0.688c-14.922-27.468-35.012-51.356-61.15-70.594-18.138-13.348-37.572-23.77-58.99-30.742-12.19-3.968-24.808-6.262-37.546-7.692 1.076-1.148 2.148-2.308 3.224-3.466z m148.966-136.276c9.132 7.122 18.322 14.168 27.502 21.218 17.04 13.09 34.188 26.036 51.372 38.938-14.562 0.972-29.15 4.636-41.834 9.192-10.452 3.754-21.07 9.16-29.928 16.278-3.526-28.42-6.292-56.912-7.112-85.626z m97.888-75.216c-13.136-10.042-27.164-23.078-35.684-38.144a5349.354 5349.354 0 0 0 45.29-56.852c5.02 43.684 20.042 88.558 48.266 121.672-20.698-5.55-40.672-13.53-57.872-26.676zM593.164 179.722c28.756 9.132 56.796 19.468 87.124 22.21 21.966 1.984 44.146-4.43 65.976-3.286-7.626 11.23-15.276 22.438-23.158 33.464-14.902 20.848-30.246 41.372-45.822 61.718a11.97 11.97 0 0 0-3.03-0.046c-34.12 3.914-67.108-9.118-96.844-24.414-19.404-9.984-43.542-20.208-59.934-36.418-9.406-37.18-20.552-75.536-23.196-113.664l-0.038-0.566c28.18 27.268 60.278 48.73 98.922 61.002z m-95.774 64.086c0.112 0.124 0.218 0.25 0.328 0.376 0.572 2.332 1.142 4.664 1.718 6.996 7.35 29.774 12.308 59.562 16.348 89.668-2.784 1.21-4.96 3.738-5.484 7.808-2.884 22.406-39.33 32.758-58.048 33.128-2.654 0.05-4.75 0.864-6.312 2.144-30.87-29.742-61.53-59.7-92.964-88.852 26.292-1.508 52.374-5.782 77.514-13.882 15.634-5.04 30.646-12.128 44.648-20.696 7.392-4.518 15.76-9.94 22.252-16.69z m-23.088-103.656c2.358 15.668 6.458 31.286 9.856 46.61 2.01 9.062 4.11 18.106 6.246 27.14-2.004 1.398-3.538 3.614-4.102 6.754-1.986 11.036-20.05 19.668-28.746 24.77-12.592 7.394-26.402 12.606-40.32 16.886-26.628 8.188-54.758 11.062-82.55 11.43-2.042-1.128-4.366-1.55-6.632-1.372-23.668-21.032-47.938-41.3-71.366-62.468 74.474-4.324 178.982-5.292 217.614-69.75zM89.41 620.136c-7.962 1.786-16.014 3.128-24.116 3.754a12.64 12.64 0 0 0 0.29-5.07c0.834-1.48 1.944-3.062 3.79-5.258 5.218-6.214 11.056-11.93 16.782-17.668 13.002-13.04 23.748-26.91 34.24-42.098 27.854-40.308 48.476-83.606 64.192-129.95 15.338-45.222 25.254-91.848 30.778-139.254 3.066-26.328 4.184-52.528 4.546-78.864a955.078 955.078 0 0 0 13.084 12.524c6.078 31.07 19.12 60.628 21.228 92.5 2.448 36.984-5.196 75.008-19.818 108.864-31.8 73.632-87.896 135.32-142.28 192.96-2.134 2.264-2.916 4.944-2.716 7.56z m100.952 88.356c-26.28-25.836-57.42-52.598-92.3-67.984 3.702-0.832 7.394-1.73 11.08-2.684 29.77 17.43 60.106 33.95 82.8 60.754 7.314 8.636 13.088 17.766 17.924 27.418-6.658-5.668-13.272-11.378-19.504-17.504z m56.152 51.8c-2.552-7.52-4.952-15.106-7.586-22.59-7.386-20.984-18.108-39.426-32.798-56.132-19.294-21.942-43.192-37.414-67.824-52.042 11.61-3.458 23.204-6.93 34.85-9.804 45.004-11.114 90.012-22.352 135.136-32.96a1522.962 1522.962 0 0 0 25.356-6.196c20.898 16.828 40.318 51.762 31.598 77.292-0.938 2.746-1.066 5.348-0.516 7.624l-10.03 10.656c-31.6 33.574-65.174 65.008-98.736 96.476-2.776-4.326-6.004-8.428-9.45-12.324z m24.36 28.9c24.04-22.292 48.074-44.59 71.146-67.894 15.286-15.438 30.328-31.132 45.264-46.942 15.958 1.09 31.792 3.184 47.284 7.398 19.51 5.312 37.52 15.5 53.844 27.226 35.496 25.488 58.41 60.386 72.304 101.41 1.498 4.426 4.72 6.624 8.212 7.098 2.948 37.958 5.56 75.95 9.198 113.844-74.634-90.41-188.224-155.464-307.252-142.14z m310.38-74.406c-3.54-29.152-7.934-58.188-11.926-87.254 7.31-12.73 25.354-20.39 37.756-24.606 18.002-6.124 43.12-10.832 61.122-2.316a11.2 11.2 0 0 0 5.608 1.004c14.676 10.934 29.36 21.856 44.038 32.79-1.73 0.2-3.406 0.39-4.994 0.542-12.578 1.21-25.072 3.71-37.244 7.07-22.256 6.14-43.51 17.024-61.162 31.918-13.952 11.774-24.892 25.632-33.198 40.852z m263.002 22.644c-55.792-7.68-113.836 11.426-160.544 42.032-38.382 25.152-72.106 62.058-87.59 105.336-3.268-40.468-5.994-80.988-9.746-121.414 5.97-26.442 18.426-50.79 39.168-70.122 29.242-27.25 70.598-36.796 109.688-37.516 1.772 1.266 4.016 2.028 6.716 1.98 2.004-0.04 4.088-0.258 5.99-0.89 26.8 20 53.686 39.96 79.346 61.402a1701.004 1701.004 0 0 1 11.256 9.5 154.772 154.772 0 0 0 5.716 9.692z m-20.83-126.84c-5.266 24.262-4.13 52.422 0.676 76.918-13.828-10.992-27.852-21.734-41.978-32.398a9612.86 9612.86 0 0 0-42.708-32.02c2.07-2.542 3.11-5.984 2.068-9.972-10.206-39.086-3.488-79.968 19.876-113.094 9.72 1.106 19.422 2.168 29.096 3.118 33.234 3.258 67.59 4.136 100.642 9.632-35.686 18.444-59.454 59.94-67.672 97.816z" fill="" p-id="6686"></path><path d="M1002.242 510.992c-30.798-11.82-63.678-12.562-95.878-17.852-1.288-0.214-2.584-0.382-3.874-0.586-20.636-10.668-42.102-19.808-60.242-34.696-25.972-21.308-47.842-50.332-61.538-80.934-12.482-27.89-16.228-59.25-17.166-89.516-0.95-30.602 2.11-62.734 12.668-91.652a15.12 15.12 0 0 0 0.876-3.836l0.152-0.218c18.474-25.906 38.202-52.796 46.668-83.898a18.6 18.6 0 0 0 1.134-4.41c0.034-0.144 0.078-0.286 0.11-0.43-0.018 0-0.036 0-0.054-0.004 0.116-0.934 0.2-1.898 0.226-2.942 0.338-12.872-19.096-12.848-21.768-1.254-0.032 0.14-0.074 0.274-0.106 0.414-0.122 0.144-0.222 0.258-0.36 0.426-3.054 3.136-3.592 6.672-2.594 9.774-7.068 20.738-19.942 39.54-32.35 57.3-2.65 3.79-5.26 7.614-7.876 11.43-22.862-4.262-46.348 1.446-69.4 2.246-27.076 0.942-56.3-9.152-81.492-18.102-23.586-8.378-46.124-16.7-66.89-31.07-18.752-12.976-35.304-29.028-50.354-46.132-1.62-22.46-4.374-44.95-12.378-65.82-4.22-11-17.98-8.378-20.808 1.192-6.38 5.09-3.322 16.094 4.182 18.758 3.608 13.05 5.478 26.622 6.666 40.292-1.392 1.882-2.292 4.324-2.392 7.238-3.728 107.406-152.28 96.782-226.864 102.18a10.664 10.664 0 0 0-4.776 1.554c-14.758-14.168-28.984-28.922-42.256-44.73-9.032-10.762-27.364 1.43-18.238 12.3a592.226 592.226 0 0 0 22.856 25.598c-0.022 33.676-0.872 66.882-4.778 100.41-5.424 46.566-15.522 92.632-30.834 136.96-15.73 45.528-37 87.872-64.87 127.184-9.588 13.524-19.9 25.02-31.53 36.734-9.548 9.618-19.05 20.606-23.314 31.39-1.244 3.148-1.346 6.14-0.272 8.878-8.916 4.372-10.08 19.672 1.77 20.464 3.076 0.208 6.136 0.3 9.186 0.312 1.268 2.688 3.712 4.852 7.518 5.602 44.188 8.714 80.66 41.68 112.636 71.41 12.616 11.73 25.87 22.7 38.646 34.246 4.828 4.364 10.086 9.054 14.912 14.16 2.482 6.98 5.12 13.882 8.164 20.618-15.91 15.008-31.73 30.122-47.238 45.582-10.078 10.046 6.544 24.48 16.53 14.524 13.792-13.75 27.91-27.156 42.124-40.46 2.16 1.624 4.986 2.618 7.454 2.172 125.93-22.656 246.848 49.418 320.018 148.172 2.248 3.036 5.278 4.458 8.306 4.632 4.852 9.618 22.226 7.004 20.784-5.628-0.278-2.438-0.536-4.878-0.802-7.316 4.008-1.52 7.156-5.14 6.8-10.684-3.916-61.196 38.398-112.972 86.678-145.278 47.788-31.972 113.958-52.332 170.444-33.012 5.254 1.796 9.918 0.34 12.752-2.668 7.45 6.066 14.988 12.02 22.712 17.738-1.808 8.594 11.098 17.14 19.692 9.336-0.602 0.71-0.144 0.75 1.374 0.122 7.752-1.648 10.008-14.184 3.624-18.644-24.488-17.118-47.056-36.648-69.722-56.058-14.504-29.688-18.186-63.934-12.312-97.464 6.506-37.144 34.984-85.328 75.62-91.23 5.014-0.73 8.15-3.718 9.318-7.336 14.198 1.598 28.434 3.07 42.302 6.144 0.71 5.23 4.626 10.222 11.376 10.192 6.35-0.036 11.98-0.946 17.79-3.59 7.71-3.508 11.048-16.48 1.258-20.234z m-179.576-41.09c6.474 6.036 13.462 11.21 20.752 15.882-16.278-1.414-32.566-2.676-48.768-4.242-12.164-1.172-24.376-2.532-36.622-3.938-0.952-1.872-2.296-3.536-4.038-4.704-47.798-32.094-65.876-99.324-67.75-154.75a3225.71 3225.71 0 0 0 28.442-37.442c10.07-13.464 19.696-27.204 29.224-40.996-1.744 14.18-2.446 28.52-2.414 42.876 0.074 34.246 4.95 69.95 18.45 101.61 13.994 32.81 36.784 61.524 62.724 85.704z m-104.906 137.056c-11.15-8.296-22.296-16.602-33.438-24.906-1.012-17.574-9.262-34.664-5.372-52.184 3.126-14.086 15.016-29.094 28.616-35.934 9.906 1.04 19.802 2.16 29.684 3.304-19.764 33.528-26.362 71.398-19.49 109.72z m-60.954-56.852c0.64 4.476 1.76 8.976 2.856 13.496-10.474-7.84-20.954-15.676-31.388-23.57a4415.254 4415.254 0 0 1-61.088-47.102c0.646 0.016 1.316-0.012 2.028-0.114 35.448-5.098 71.192-4.528 106.912-1.778-6.682 7.504-12.054 16.144-15.558 24.672-4.564 11.106-5.448 22.594-3.762 34.396z m-260.126-10.18a1197.804 1197.804 0 0 1-19.796 6.016c-3.164-0.25-5.816 0.684-7.858 2.292a1492.296 1492.296 0 0 1-10.782 3.042 215.286 215.286 0 0 0 34.324-114.004c0.342-28.058-4.544-57.168-14.322-83.488a152.736 152.736 0 0 0-3.166-7.774c22.21 21.208 44.158 42.7 66.288 63.984 0.344 0.332 0.69 0.66 1.034 0.988 0.908 29.102 3.09 60.43-9.84 86.672-5.756 11.684-13.944 22.078-22.998 31.368-3.554 3.646-7.982 7.674-12.884 10.904z m-8.368 97.508c-2.086-23.106-13.858-46.09-29.976-63.364a1259.92 1259.92 0 0 0 22.31-6.34c4.72-0.238 9.274-1.16 13.658-2.606 10.588 21.876 3.218 50.942-5.992 72.31z m-126.544-393.032c13.688 12.102 27.568 24.008 41.438 35.93a1419.854 1419.854 0 0 1 21.956 19.336c9.052 17.426 19.782 33.926 28.2 51.696 11.252 23.754 15.852 50.714 17.082 76.79 2.248 47.7-14.696 94.992-45.606 131.34-0.218 0.258-0.406 0.524-0.596 0.786a1810.694 1810.694 0 0 1-20.066 4.964c-42.462 10.226-84.888 20.624-127.312 31.016-17.728 4.34-35.21 9.148-52.682 14.27 50.592-54.508 99.564-112.86 129.936-181.122 15.546-34.942 21.74-71.808 22.222-109.864 0.33-26.13-7.632-50.512-14.572-75.142z m203 187.902c15.234 14.41 30.596 28.684 46.208 42.688a649.02 649.02 0 0 0 13.808 11.992c-0.618 0.804-1.244 1.602-1.862 2.406-26.166 13.406-53.392 25.016-81.202 35.25a211.108 211.108 0 0 0 5.874-8.868c15.59-24.886 17.482-54.35 17.174-83.468z m93.592 53.732c-1.054-0.832-2.12-1.648-3.172-2.48l2.912-3.774a12.782 12.782 0 0 0 0.26 6.254z m-5.01-35.99c-2.448-8.45-3.414-17.644-4.666-25.762-2.156-13.976-3.962-27.984-5.64-42.02a101.824 101.824 0 0 0 10.294 5.882 108.43 108.43 0 0 0 20.94 7.688c6.576 1.684 14.334 0.512 20.942 1.93 0.042 0.122 0.09 0.242 0.134 0.364-13.992 17.314-28.23 34.418-42.004 51.918z m-138.618 107.102c26.6-8.73 52.856-18.508 78.434-29.636-1.106 1.386-2.188 2.792-3.298 4.18-20.446 25.5-44.842 48.476-67.248 72.282l-2.706 2.876c2.52-17.002 1.62-34.296-5.182-49.702z m62.452 20.938c21.096-22.414 40.426-46.234 59.32-70.426 0.58 38.614 4.818 76.832 9.934 114.972-6.754-3.168-13.93-5.308-21.742-6.176-14.76-1.636-29.412 1.312-44.146 1.332-14.222 0.02-28.642 0.45-42.726 2.458a9166.83 9166.83 0 0 1 39.36-42.16z m119.56-147.492c3.168-3.89 6.326-7.79 9.49-11.684 9.268 13.446 21.654 25.208 33.782 35.132 6.482 5.308 13.396 9.91 20.606 13.96-31.13-1.778-62.238-1.566-93.098 2.872a11.934 11.934 0 0 0-3.298 0.964c10.694-13.85 21.452-27.662 32.518-41.244z m11.25-51.692c-11.85-4.52-24.688-2.364-36.712-6.852-10.668-3.98-22.568-11.624-31.836-20.07-3.628-28.836-8.158-57.196-14.174-85.532 13.876 8.652 28.95 15.758 42.348 22.628 28.416 14.574 59.876 26.914 92.184 27.394-16.502 21.222-33.188 42.304-49.856 63.386a12.326 12.326 0 0 0-1.954-0.954z m-79.904 55.524c1.884 11.406 3.924 23.692 9.006 34.328-19.404-16.484-37.898-34.148-56.374-51.594a3714.382 3714.382 0 0 1-15.228-14.464c19.026-2.894 41.32-11.766 54.716-26.204l0.438 3.746c2.096 18.126 4.472 36.188 7.442 54.188z m-118.462 216.12c20.532-9.668 44.38-10.516 66.734-10.786 24.696-0.296 50.366-7.208 71.476 9.258 0.792 0.618 1.618 1.086 2.454 1.476 3.714 26.286 7.528 52.574 10.538 78.96a1784.17 1784.17 0 0 1 3.396 32.898l-0.136 0.688c-14.922-27.468-35.012-51.356-61.15-70.594-18.138-13.348-37.572-23.77-58.99-30.742-12.19-3.968-24.808-6.262-37.546-7.692 1.076-1.148 2.148-2.308 3.224-3.466z m148.966-136.276c9.132 7.122 18.322 14.168 27.502 21.218 17.04 13.09 34.188 26.036 51.372 38.938-14.562 0.972-29.15 4.636-41.834 9.192-10.452 3.754-21.07 9.16-29.928 16.278-3.526-28.42-6.292-56.912-7.112-85.626z m97.888-75.216c-13.136-10.042-27.164-23.078-35.684-38.144a5349.354 5349.354 0 0 0 45.29-56.852c5.02 43.684 20.042 88.558 48.266 121.672-20.698-5.55-40.672-13.53-57.872-26.676zM593.164 179.722c28.756 9.132 56.796 19.468 87.124 22.21 21.966 1.984 44.146-4.43 65.976-3.286-7.626 11.23-15.276 22.438-23.158 33.464-14.902 20.848-30.246 41.372-45.822 61.718a11.97 11.97 0 0 0-3.03-0.046c-34.12 3.914-67.108-9.118-96.844-24.414-19.404-9.984-43.542-20.208-59.934-36.418-9.406-37.18-20.552-75.536-23.196-113.664l-0.038-0.566c28.18 27.268 60.278 48.73 98.922 61.002z m-95.774 64.086c0.112 0.124 0.218 0.25 0.328 0.376 0.572 2.332 1.142 4.664 1.718 6.996 7.35 29.774 12.308 59.562 16.348 89.668-2.784 1.21-4.96 3.738-5.484 7.808-2.884 22.406-39.33 32.758-58.048 33.128-2.654 0.05-4.75 0.864-6.312 2.144-30.87-29.742-61.53-59.7-92.964-88.852 26.292-1.508 52.374-5.782 77.514-13.882 15.634-5.04 30.646-12.128 44.648-20.696 7.392-4.518 15.76-9.94 22.252-16.69z m-23.088-103.656c2.358 15.668 6.458 31.286 9.856 46.61 2.01 9.062 4.11 18.106 6.246 27.14-2.004 1.398-3.538 3.614-4.102 6.754-1.986 11.036-20.05 19.668-28.746 24.77-12.592 7.394-26.402 12.606-40.32 16.886-26.628 8.188-54.758 11.062-82.55 11.43-2.042-1.128-4.366-1.55-6.632-1.372-23.668-21.032-47.938-41.3-71.366-62.468 74.474-4.324 178.982-5.292 217.614-69.75zM89.41 620.136c-7.962 1.786-16.014 3.128-24.116 3.754a12.64 12.64 0 0 0 0.29-5.07c0.834-1.48 1.944-3.062 3.79-5.258 5.218-6.214 11.056-11.93 16.782-17.668 13.002-13.04 23.748-26.91 34.24-42.098 27.854-40.308 48.476-83.606 64.192-129.95 15.338-45.222 25.254-91.848 30.778-139.254 3.066-26.328 4.184-52.528 4.546-78.864a955.078 955.078 0 0 0 13.084 12.524c6.078 31.07 19.12 60.628 21.228 92.5 2.448 36.984-5.196 75.008-19.818 108.864-31.8 73.632-87.896 135.32-142.28 192.96-2.134 2.264-2.916 4.944-2.716 7.56z m100.952 88.356c-26.28-25.836-57.42-52.598-92.3-67.984 3.702-0.832 7.394-1.73 11.08-2.684 29.77 17.43 60.106 33.95 82.8 60.754 7.314 8.636 13.088 17.766 17.924 27.418-6.658-5.668-13.272-11.378-19.504-17.504z m56.152 51.8c-2.552-7.52-4.952-15.106-7.586-22.59-7.386-20.984-18.108-39.426-32.798-56.132-19.294-21.942-43.192-37.414-67.824-52.042 11.61-3.458 23.204-6.93 34.85-9.804 45.004-11.114 90.012-22.352 135.136-32.96a1522.962 1522.962 0 0 0 25.356-6.196c20.898 16.828 40.318 51.762 31.598 77.292-0.938 2.746-1.066 5.348-0.516 7.624l-10.03 10.656c-31.6 33.574-65.174 65.008-98.736 96.476-2.776-4.326-6.004-8.428-9.45-12.324z m24.36 28.9c24.04-22.292 48.074-44.59 71.146-67.894 15.286-15.438 30.328-31.132 45.264-46.942 15.958 1.09 31.792 3.184 47.284 7.398 19.51 5.312 37.52 15.5 53.844 27.226 35.496 25.488 58.41 60.386 72.304 101.41 1.498 4.426 4.72 6.624 8.212 7.098 2.948 37.958 5.56 75.95 9.198 113.844-74.634-90.41-188.224-155.464-307.252-142.14z m310.38-74.406c-3.54-29.152-7.934-58.188-11.926-87.254 7.31-12.73 25.354-20.39 37.756-24.606 18.002-6.124 43.12-10.832 61.122-2.316a11.2 11.2 0 0 0 5.608 1.004c14.676 10.934 29.36 21.856 44.038 32.79-1.73 0.2-3.406 0.39-4.994 0.542-12.578 1.21-25.072 3.71-37.244 7.07-22.256 6.14-43.51 17.024-61.162 31.918-13.952 11.774-24.892 25.632-33.198 40.852z m263.002 22.644c-55.792-7.68-113.836 11.426-160.544 42.032-38.382 25.152-72.106 62.058-87.59 105.336-3.268-40.468-5.994-80.988-9.746-121.414 5.97-26.442 18.426-50.79 39.168-70.122 29.242-27.25 70.598-36.796 109.688-37.516 1.772 1.266 4.016 2.028 6.716 1.98 2.004-0.04 4.088-0.258 5.99-0.89 26.8 20 53.686 39.96 79.346 61.402a1701.004 1701.004 0 0 1 11.256 9.5 154.772 154.772 0 0 0 5.716 9.692z m-20.83-126.84c-5.266 24.262-4.13 52.422 0.676 76.918-13.828-10.992-27.852-21.734-41.978-32.398a9612.86 9612.86 0 0 0-42.708-32.02c2.07-2.542 3.11-5.984 2.068-9.972-10.206-39.086-3.488-79.968 19.876-113.094 9.72 1.106 19.422 2.168 29.096 3.118 33.234 3.258 67.59 4.136 100.642 9.632-35.686 18.444-59.454 59.94-67.672 97.816z" fill="" p-id="6687"></path></svg>