<?xml version="1.0" standalone="no"?><!DOCTYPE svg PUBLIC "-//W3C//DTD SVG 1.1//EN" "http://www.w3.org/Graphics/SVG/1.1/DTD/svg11.dtd"><svg t="1725094434419" class="icon" viewBox="0 0 1024 1024" version="1.1" xmlns="http://www.w3.org/2000/svg" p-id="32578" width="256" height="256" xmlns:xlink="http://www.w3.org/1999/xlink"><path d="M170.24 839.3216a31.232 31.232 0 0 1-31.1808-31.232V266.8544c0-106.9056 91.5968-193.9456 204.1856-193.9456s204.1344 87.04 204.1344 193.9456v491.52a31.232 31.232 0 1 1-62.4128 0v-491.52C484.9664 194.56 421.376 135.3216 343.04 135.3216S201.472 194.56 201.472 266.8544v541.2352a31.232 31.232 0 0 1-31.232 31.232z" fill="#303135" p-id="32579"></path><path d="M688.896 942.08a208.6912 208.6912 0 0 1-143.616-56.32 187.7504 187.7504 0 0 1-60.5184-137.7792V271.36a31.232 31.232 0 1 1 62.4128 0v476.672a126.0032 126.0032 0 0 0 40.96 92.416 146.2784 146.2784 0 0 0 100.864 39.1168c78.1824 0 141.7216-59.0336 141.7216-131.5328V252.672a31.232 31.232 0 0 1 62.4128 0v495.2064c0 106.9056-91.5456 193.8944-204.0832 193.9456z" fill="#303135" p-id="32580"></path><path d="M170.24 988.16a98.2016 98.2016 0 1 1 98.2528-98.2016A98.304 98.304 0 0 1 170.24 988.16z m0-133.9904a35.84 35.84 0 1 0 35.84 35.84 35.84 35.84 0 0 0-35.84-35.6352zM861.8496 255.232a98.2528 98.2528 0 1 1 98.2016-98.2016 98.304 98.304 0 0 1-98.2016 98.2016z m0-134.0416a35.84 35.84 0 1 0 35.84 35.84 35.84 35.84 0 0 0-35.84-35.84z" fill="#FF623E" p-id="32581"></path></svg>