<?xml version="1.0" standalone="no"?><!DOCTYPE svg PUBLIC "-//W3C//DTD SVG 1.1//EN" "http://www.w3.org/Graphics/SVG/1.1/DTD/svg11.dtd"><svg t="1723794231082" class="icon" viewBox="0 0 1024 1024" version="1.1" xmlns="http://www.w3.org/2000/svg" p-id="1497" xmlns:xlink="http://www.w3.org/1999/xlink" width="200" height="200"><path d="M618.666667 170.666667c174.933333 0 320 145.066667 320 320S793.6 810.666667 618.666667 810.666667c-29.866667 0-59.733333-4.266667-85.333334-12.8 34.133333-42.666667 55.466667-98.133333 64-153.6l81.066667 12.8h8.533333c8.533333-4.266667 8.533333-8.533333 4.266667-17.066667L597.333333 443.733333s0-4.266667-4.266666-4.266666c-4.266667-4.266667-12.8-4.266667-17.066667 0l-153.6 153.6s-4.266667 4.266667-4.266667 8.533333c0 8.533333 4.266667 12.8 8.533334 12.8l81.066666 12.8c-8.533333 51.2-34.133333 93.866667-68.266666 123.733333-38.4 38.4-85.333333 59.733333-140.8 59.733334-119.466667 0-213.333333-93.866667-213.333334-213.333334s93.866667-213.333333 213.333334-213.333333h17.066666c42.666667-123.733333 162.133333-213.333333 302.933334-213.333333z" fill="#EE722E" p-id="1498"></path></svg>